<svg width="563" height="365" viewBox="0 0 563 365" fill="none" xmlns="http://www.w3.org/2000/svg">
<circle cx="215.093" cy="211.267" r="84.1806" fill="#00D9DD"/>
<path d="M292.033 177.111C300.588 196.383 301.6 218.163 294.867 238.145C288.135 258.127 274.149 274.854 255.676 285.019C237.203 295.185 215.587 298.047 195.105 293.04C174.623 288.034 156.765 275.523 145.064 257.982C133.363 240.442 128.671 219.149 131.915 198.314C135.159 177.48 146.104 158.622 162.585 145.47C179.066 132.318 199.882 125.83 220.917 127.288C241.952 128.747 261.673 138.047 276.181 153.348L215.093 211.267L292.033 177.111Z" fill="#1BF4F8"/>
<path d="M292.033 177.111C300.194 195.495 301.503 216.193 295.723 235.458C289.943 254.724 277.455 271.283 260.522 282.137C243.589 292.992 223.328 297.425 203.409 294.633C183.49 291.841 165.229 282.01 151.932 266.918C138.635 251.827 131.181 232.473 130.92 212.361C130.658 192.249 137.607 172.708 150.507 157.276C163.408 141.844 181.407 131.541 201.247 128.233C221.087 124.925 241.456 128.83 258.665 139.241L215.093 211.267L292.033 177.111Z" fill="#A9F7F9"/>
<path d="M316.782 166.124C326.261 187.476 328.779 211.27 323.978 234.133C319.176 256.996 307.3 277.767 290.033 293.503C272.766 309.238 250.983 319.139 227.774 321.802C204.565 324.465 181.106 319.754 160.724 308.338C140.342 296.922 124.07 279.38 114.216 258.198C104.361 237.016 101.425 213.27 105.822 190.326C110.219 167.382 121.727 146.404 138.714 130.367C155.701 114.329 177.305 104.045 200.464 100.974L215.093 211.267L316.782 166.124Z" fill="#CA23F3"/>
<circle cx="228.069" cy="139.449" r="4.89901" fill="white"/>
<circle cx="257.267" cy="155.126" r="4.89901" fill="white"/>
<circle cx="273.14" cy="174.722" r="4.89901" fill="white"/>
<circle cx="146.353" cy="272.311" r="4.89901" fill="white"/>
<path d="M228.069 139.449L285.877 81.641H355.443" stroke="white" stroke-width="2"/>
<path d="M257.267 155.126L303.869 108.487H359.95" stroke="white" stroke-width="2"/>
<path d="M146.353 272.311L99.484 322.869H43.082" stroke="white" stroke-width="2"/>
<path d="M273.14 174.723L313.962 137.098H363.086" stroke="white" stroke-width="2"/>
<path d="M154.487 12.14H150.187V9H162.727V12.14H158.447V23H154.487V12.14ZM168.369 23.18C167.209 23.18 166.162 22.94 165.229 22.46C164.296 21.98 163.562 21.3133 163.029 20.46C162.509 19.6067 162.249 18.64 162.249 17.56C162.249 16.4933 162.509 15.5333 163.029 14.68C163.562 13.8267 164.289 13.1667 165.209 12.7C166.142 12.22 167.196 11.98 168.369 11.98C169.542 11.98 170.596 12.22 171.529 12.7C172.462 13.1667 173.189 13.8267 173.709 14.68C174.229 15.52 174.489 16.48 174.489 17.56C174.489 18.64 174.229 19.6067 173.709 20.46C173.189 21.3133 172.462 21.98 171.529 22.46C170.596 22.94 169.542 23.18 168.369 23.18ZM168.369 20.16C169.036 20.16 169.582 19.9333 170.009 19.48C170.436 19.0133 170.649 18.3733 170.649 17.56C170.649 16.76 170.436 16.1333 170.009 15.68C169.582 15.2267 169.036 15 168.369 15C167.702 15 167.156 15.2267 166.729 15.68C166.302 16.1333 166.089 16.76 166.089 17.56C166.089 18.3733 166.302 19.0133 166.729 19.48C167.156 19.9333 167.702 20.16 168.369 20.16ZM183.729 22.56C183.409 22.76 183.016 22.9133 182.549 23.02C182.096 23.1267 181.609 23.18 181.089 23.18C179.676 23.18 178.589 22.8333 177.829 22.14C177.069 21.4467 176.689 20.4133 176.689 19.04V15.4H175.109V12.56H176.689V9.74H180.489V12.56H182.969V15.4H180.489V19C180.489 19.3867 180.589 19.6933 180.789 19.92C181.003 20.1333 181.283 20.24 181.629 20.24C182.069 20.24 182.456 20.1267 182.789 19.9L183.729 22.56ZM189.815 11.98C191.615 11.98 192.988 12.3933 193.935 13.22C194.881 14.0333 195.355 15.2867 195.355 16.98V23H191.815V21.6C191.268 22.6533 190.201 23.18 188.615 23.18C187.775 23.18 187.048 23.0333 186.435 22.74C185.821 22.4467 185.355 22.0533 185.035 21.56C184.728 21.0533 184.575 20.48 184.575 19.84C184.575 18.8133 184.968 18.02 185.755 17.46C186.541 16.8867 187.755 16.6 189.395 16.6H191.555C191.488 15.4533 190.721 14.88 189.255 14.88C188.735 14.88 188.208 14.9667 187.675 15.14C187.141 15.3 186.688 15.5267 186.315 15.82L185.035 13.24C185.635 12.84 186.361 12.5333 187.215 12.32C188.081 12.0933 188.948 11.98 189.815 11.98ZM189.675 20.78C190.115 20.78 190.501 20.6733 190.835 20.46C191.168 20.2467 191.408 19.9333 191.555 19.52V18.58H189.915C188.808 18.58 188.255 18.9467 188.255 19.68C188.255 20.0133 188.381 20.28 188.635 20.48C188.888 20.68 189.235 20.78 189.675 20.78ZM197.753 8.16H201.553V23H197.753V8.16ZM213.783 23.18C212.876 23.18 211.983 23.08 211.103 22.88C210.223 22.6667 209.516 22.3933 208.983 22.06L210.123 19.46C210.616 19.7667 211.203 20.0133 211.883 20.2C212.563 20.3733 213.236 20.46 213.903 20.46C214.516 20.46 214.95 20.4 215.203 20.28C215.47 20.1467 215.603 19.96 215.603 19.72C215.603 19.48 215.443 19.3133 215.123 19.22C214.816 19.1133 214.323 19.0133 213.643 18.92C212.776 18.8133 212.036 18.6733 211.423 18.5C210.823 18.3267 210.303 18.0067 209.863 17.54C209.423 17.0733 209.203 16.42 209.203 15.58C209.203 14.8867 209.41 14.2733 209.823 13.74C210.236 13.1933 210.836 12.7667 211.623 12.46C212.423 12.14 213.376 11.98 214.483 11.98C215.27 11.98 216.05 12.06 216.823 12.22C217.596 12.38 218.243 12.6067 218.763 12.9L217.623 15.48C216.663 14.9467 215.623 14.68 214.503 14.68C213.903 14.68 213.463 14.7533 213.183 14.9C212.903 15.0333 212.763 15.2133 212.763 15.44C212.763 15.6933 212.916 15.8733 213.223 15.98C213.53 16.0733 214.036 16.1733 214.743 16.28C215.636 16.4133 216.376 16.5667 216.963 16.74C217.55 16.9133 218.056 17.2333 218.483 17.7C218.923 18.1533 219.143 18.7933 219.143 19.62C219.143 20.3 218.936 20.9133 218.523 21.46C218.11 21.9933 217.496 22.4133 216.683 22.72C215.883 23.0267 214.916 23.18 213.783 23.18ZM232.181 12.16V23H228.561V21.84C228.161 22.28 227.681 22.6133 227.121 22.84C226.561 23.0667 225.967 23.18 225.341 23.18C223.941 23.18 222.821 22.7667 221.981 21.94C221.154 21.1133 220.741 19.8733 220.741 18.22V12.16H224.541V17.6C224.541 18.4133 224.694 19.0067 225.001 19.38C225.307 19.7533 225.754 19.94 226.341 19.94C226.941 19.94 227.427 19.7333 227.801 19.32C228.187 18.8933 228.381 18.2467 228.381 17.38V12.16H232.181ZM241.448 11.98C242.435 11.98 243.328 12.2133 244.128 12.68C244.942 13.1333 245.582 13.7867 246.048 14.64C246.528 15.48 246.768 16.46 246.768 17.58C246.768 18.7 246.528 19.6867 246.048 20.54C245.582 21.38 244.942 22.0333 244.128 22.5C243.328 22.9533 242.435 23.18 241.448 23.18C240.182 23.18 239.175 22.8 238.428 22.04V26.88H234.628V12.16H238.248V13.24C238.955 12.4 240.022 11.98 241.448 11.98ZM240.648 20.16C241.315 20.16 241.862 19.9333 242.288 19.48C242.715 19.0133 242.928 18.38 242.928 17.58C242.928 16.78 242.715 16.1533 242.288 15.7C241.862 15.2333 241.315 15 240.648 15C239.982 15 239.435 15.2333 239.008 15.7C238.582 16.1533 238.368 16.78 238.368 17.58C238.368 18.38 238.582 19.0133 239.008 19.48C239.435 19.9333 239.982 20.16 240.648 20.16ZM255.354 11.98C256.341 11.98 257.234 12.2133 258.034 12.68C258.848 13.1333 259.488 13.7867 259.954 14.64C260.434 15.48 260.674 16.46 260.674 17.58C260.674 18.7 260.434 19.6867 259.954 20.54C259.488 21.38 258.848 22.0333 258.034 22.5C257.234 22.9533 256.341 23.18 255.354 23.18C254.088 23.18 253.081 22.8 252.334 22.04V26.88H248.534V12.16H252.154V13.24C252.861 12.4 253.928 11.98 255.354 11.98ZM254.554 20.16C255.221 20.16 255.768 19.9333 256.194 19.48C256.621 19.0133 256.834 18.38 256.834 17.58C256.834 16.78 256.621 16.1533 256.194 15.7C255.768 15.2333 255.221 15 254.554 15C253.888 15 253.341 15.2333 252.914 15.7C252.488 16.1533 252.274 16.78 252.274 17.58C252.274 18.38 252.488 19.0133 252.914 19.48C253.341 19.9333 253.888 20.16 254.554 20.16ZM262.441 8.16H266.241V23H262.441V8.16ZM280.13 12.16L275.45 23.44C274.904 24.7733 274.237 25.7067 273.45 26.24C272.664 26.7867 271.704 27.06 270.57 27.06C269.997 27.06 269.417 26.9667 268.83 26.78C268.257 26.6067 267.79 26.3733 267.43 26.08L268.75 23.42C268.964 23.62 269.217 23.7733 269.51 23.88C269.817 24 270.124 24.06 270.43 24.06C270.79 24.06 271.084 23.9867 271.31 23.84C271.55 23.6933 271.75 23.46 271.91 23.14L267.27 12.16H271.17L273.83 18.78L276.51 12.16H280.13Z" fill="white"/>
<path d="M367.275 84.0449H366.326V77.9394C366.326 77.4316 366.342 76.9511 366.373 76.498C366.291 76.58 366.199 76.666 366.098 76.7558C365.996 76.8457 365.531 77.2265 364.703 77.8984L364.188 77.2304L366.455 75.4785H367.275V84.0449ZM376.217 79.75C376.217 81.2304 375.982 82.3359 375.514 83.0664C375.049 83.7968 374.336 84.1621 373.375 84.1621C372.453 84.1621 371.752 83.789 371.271 83.0429C370.791 82.2929 370.551 81.1953 370.551 79.75C370.551 78.2578 370.783 77.1503 371.248 76.4277C371.713 75.705 372.422 75.3437 373.375 75.3437C374.305 75.3437 375.01 75.7207 375.49 76.4746C375.975 77.2285 376.217 78.3203 376.217 79.75ZM371.535 79.75C371.535 80.996 371.682 81.9043 371.975 82.4746C372.268 83.041 372.734 83.3242 373.375 83.3242C374.023 83.3242 374.492 83.0371 374.781 82.4628C375.074 81.8847 375.221 80.9804 375.221 79.75C375.221 78.5195 375.074 77.6191 374.781 77.0488C374.492 76.4746 374.023 76.1875 373.375 76.1875C372.734 76.1875 372.268 76.4707 371.975 77.0371C371.682 77.5996 371.535 78.5039 371.535 79.75ZM378.238 78.0332C378.238 78.6972 378.311 79.1953 378.455 79.5273C378.6 79.8593 378.834 80.0253 379.158 80.0253C379.799 80.0253 380.119 79.3613 380.119 78.0332C380.119 76.7128 379.799 76.0527 379.158 76.0527C378.834 76.0527 378.6 76.2168 378.455 76.5449C378.311 76.873 378.238 77.3691 378.238 78.0332ZM380.922 78.0332C380.922 78.9238 380.771 79.5976 380.471 80.0546C380.174 80.5078 379.736 80.7343 379.158 80.7343C378.611 80.7343 378.186 80.5019 377.881 80.0371C377.58 79.5722 377.43 78.9043 377.43 78.0332C377.43 77.1464 377.574 76.4785 377.863 76.0293C378.156 75.58 378.588 75.3554 379.158 75.3554C379.725 75.3554 380.16 75.5878 380.465 76.0527C380.77 76.5175 380.922 77.1777 380.922 78.0332ZM383.395 81.4668C383.395 82.1347 383.467 82.6347 383.611 82.9668C383.756 83.2949 383.992 83.4589 384.32 83.4589C384.648 83.4589 384.891 83.2968 385.047 82.9726C385.203 82.6445 385.281 82.1425 385.281 81.4668C385.281 80.7988 385.203 80.3046 385.047 79.9843C384.891 79.6601 384.648 79.498 384.32 79.498C383.992 79.498 383.756 79.6601 383.611 79.9843C383.467 80.3046 383.395 80.7988 383.395 81.4668ZM386.084 81.4668C386.084 82.3535 385.934 83.0253 385.633 83.4824C385.336 83.9355 384.898 84.1621 384.32 84.1621C383.766 84.1621 383.338 83.9296 383.037 83.4648C382.74 83 382.592 82.3339 382.592 81.4668C382.592 80.58 382.736 79.9121 383.025 79.4628C383.318 79.0136 383.75 78.789 384.32 78.789C384.875 78.789 385.307 79.0195 385.615 79.4804C385.928 79.9375 386.084 80.5996 386.084 81.4668ZM384.572 75.4785L379.82 84.0449H378.959L383.711 75.4785H384.572ZM395.77 84.0449H390.994V75.4785H395.77V76.3632H391.99V79.123H395.541V80.0019H391.99V83.1543H395.77V84.0449ZM398.934 84.0449L396.496 77.623H397.539L398.922 81.4316C399.234 82.3222 399.418 82.9003 399.473 83.166H399.52C399.562 82.9589 399.697 82.5312 399.924 81.8828C400.154 81.2304 400.668 79.8105 401.465 77.623H402.508L400.07 84.0449H398.934ZM406.252 84.1621C405.303 84.1621 404.553 83.873 404.002 83.2949C403.455 82.7168 403.182 81.914 403.182 80.8867C403.182 79.8515 403.436 79.0293 403.943 78.4199C404.455 77.8105 405.141 77.5058 406 77.5058C406.805 77.5058 407.441 77.7714 407.91 78.3027C408.379 78.83 408.613 79.5273 408.613 80.3945V81.0097H404.189C404.209 81.7636 404.398 82.3359 404.758 82.7265C405.121 83.1171 405.631 83.3125 406.287 83.3125C406.979 83.3125 407.662 83.1679 408.338 82.8789V83.746C407.994 83.8945 407.668 84 407.359 84.0625C407.055 84.1289 406.686 84.1621 406.252 84.1621ZM405.988 78.3203C405.473 78.3203 405.061 78.4882 404.752 78.8242C404.447 79.1601 404.268 79.625 404.213 80.2187H407.57C407.57 79.6054 407.434 79.1367 407.16 78.8125C406.887 78.4843 406.496 78.3203 405.988 78.3203ZM413.207 77.5058C413.492 77.5058 413.748 77.5293 413.975 77.5761L413.84 78.4785C413.574 78.4199 413.34 78.3906 413.137 78.3906C412.617 78.3906 412.172 78.6015 411.801 79.0234C411.434 79.4453 411.25 79.9707 411.25 80.5996V84.0449H410.277V77.623H411.08L411.191 78.8125H411.238C411.477 78.3945 411.764 78.0722 412.1 77.8457C412.436 77.6191 412.805 77.5058 413.207 77.5058ZM414.156 77.623H415.199L416.605 81.2851C416.914 82.121 417.105 82.7246 417.18 83.0957H417.227C417.277 82.8964 417.383 82.5566 417.543 82.0761C417.707 81.5918 418.238 80.1074 419.137 77.623H420.18L417.42 84.9355C417.146 85.6582 416.826 86.1699 416.459 86.4707C416.096 86.7753 415.648 86.9277 415.117 86.9277C414.82 86.9277 414.527 86.8945 414.238 86.8281V86.0488C414.453 86.0957 414.693 86.1191 414.959 86.1191C415.627 86.1191 416.104 85.7441 416.389 84.9941L416.746 84.08L414.156 77.623ZM425.594 83.1835H425.541C425.092 83.8359 424.42 84.1621 423.525 84.1621C422.686 84.1621 422.031 83.875 421.562 83.3007C421.098 82.7265 420.865 81.9101 420.865 80.8515C420.865 79.7929 421.1 78.9707 421.568 78.3847C422.037 77.7988 422.689 77.5058 423.525 77.5058C424.396 77.5058 425.064 77.8222 425.529 78.455H425.605L425.564 77.9921L425.541 77.541V74.9277H426.514V84.0449H425.723L425.594 83.1835ZM423.648 83.3476C424.312 83.3476 424.793 83.1679 425.09 82.8085C425.391 82.4453 425.541 81.8613 425.541 81.0566V80.8515C425.541 79.9414 425.389 79.2929 425.084 78.9062C424.783 78.5156 424.301 78.3203 423.637 78.3203C423.066 78.3203 422.629 78.5429 422.324 78.9882C422.023 79.4296 421.873 80.0546 421.873 80.8632C421.873 81.6835 422.023 82.3027 422.324 82.7207C422.625 83.1386 423.066 83.3476 423.648 83.3476ZM432.531 84.0449L432.338 83.1308H432.291C431.971 83.5332 431.65 83.8066 431.33 83.9511C431.014 84.0918 430.617 84.1621 430.141 84.1621C429.504 84.1621 429.004 83.998 428.641 83.6699C428.281 83.3418 428.102 82.875 428.102 82.2695C428.102 80.9726 429.139 80.2929 431.213 80.2304L432.303 80.1953V79.7968C432.303 79.2929 432.193 78.9218 431.975 78.6835C431.76 78.4414 431.414 78.3203 430.938 78.3203C430.402 78.3203 429.797 78.4843 429.121 78.8125L428.822 78.0683C429.139 77.8964 429.484 77.7617 429.859 77.664C430.238 77.5664 430.617 77.5175 430.996 77.5175C431.762 77.5175 432.328 77.6875 432.695 78.0273C433.066 78.3671 433.252 78.9121 433.252 79.6621V84.0449H432.531ZM430.334 83.3593C430.939 83.3593 431.414 83.1933 431.758 82.8613C432.105 82.5293 432.279 82.0644 432.279 81.4668V80.8867L431.307 80.9277C430.533 80.955 429.975 81.0761 429.631 81.291C429.291 81.5019 429.121 81.832 429.121 82.2812C429.121 82.6328 429.227 82.9003 429.438 83.0839C429.652 83.2675 429.951 83.3593 430.334 83.3593ZM434.242 77.623H435.285L436.691 81.2851C437 82.121 437.191 82.7246 437.266 83.0957H437.312C437.363 82.8964 437.469 82.5566 437.629 82.0761C437.793 81.5918 438.324 80.1074 439.223 77.623H440.266L437.506 84.9355C437.232 85.6582 436.912 86.1699 436.545 86.4707C436.182 86.7753 435.734 86.9277 435.203 86.9277C434.906 86.9277 434.613 86.8945 434.324 86.8281V86.0488C434.539 86.0957 434.779 86.1191 435.045 86.1191C435.713 86.1191 436.189 85.7441 436.475 84.9941L436.832 84.08L434.242 77.623ZM445.398 84.0449H444.426V74.9277H445.398V84.0449ZM453.004 80.8281C453.004 81.875 452.74 82.6933 452.213 83.2832C451.686 83.8691 450.957 84.1621 450.027 84.1621C449.453 84.1621 448.943 84.0273 448.498 83.7578C448.053 83.4882 447.709 83.1015 447.467 82.5976C447.225 82.0937 447.104 81.5039 447.104 80.8281C447.104 79.7812 447.365 78.9668 447.889 78.3847C448.412 77.7988 449.139 77.5058 450.068 77.5058C450.967 77.5058 451.68 77.8046 452.207 78.4023C452.738 79 453.004 79.8085 453.004 80.8281ZM448.111 80.8281C448.111 81.6484 448.275 82.2734 448.604 82.7031C448.932 83.1328 449.414 83.3476 450.051 83.3476C450.688 83.3476 451.17 83.1347 451.498 82.7089C451.83 82.2793 451.996 81.6523 451.996 80.8281C451.996 80.0117 451.83 79.3925 451.498 78.9707C451.17 78.5449 450.684 78.332 450.039 78.332C449.402 78.332 448.922 78.541 448.598 78.9589C448.273 79.3769 448.111 80 448.111 80.8281ZM456.789 83.3593C456.961 83.3593 457.127 83.3476 457.287 83.3242C457.447 83.2968 457.574 83.2695 457.668 83.2421V83.9863C457.562 84.0371 457.406 84.0781 457.199 84.1093C456.996 84.1445 456.812 84.1621 456.648 84.1621C455.406 84.1621 454.785 83.5078 454.785 82.1992V78.3789H453.865V77.9101L454.785 77.5058L455.195 76.1347H455.758V77.623H457.621V78.3789H455.758V82.1582C455.758 82.5449 455.85 82.8418 456.033 83.0488C456.217 83.2558 456.469 83.3593 456.789 83.3593ZM461.031 83.3593C461.203 83.3593 461.369 83.3476 461.529 83.3242C461.689 83.2968 461.816 83.2695 461.91 83.2421V83.9863C461.805 84.0371 461.648 84.0781 461.441 84.1093C461.238 84.1445 461.055 84.1621 460.891 84.1621C459.648 84.1621 459.027 83.5078 459.027 82.1992V78.3789H458.107V77.9101L459.027 77.5058L459.438 76.1347H460V77.623H461.863V78.3789H460V82.1582C460 82.5449 460.092 82.8418 460.275 83.0488C460.459 83.2558 460.711 83.3593 461.031 83.3593ZM465.912 84.1621C464.963 84.1621 464.213 83.873 463.662 83.2949C463.115 82.7168 462.842 81.914 462.842 80.8867C462.842 79.8515 463.096 79.0293 463.604 78.4199C464.115 77.8105 464.801 77.5058 465.66 77.5058C466.465 77.5058 467.102 77.7714 467.57 78.3027C468.039 78.83 468.273 79.5273 468.273 80.3945V81.0097H463.85C463.869 81.7636 464.059 82.3359 464.418 82.7265C464.781 83.1171 465.291 83.3125 465.947 83.3125C466.639 83.3125 467.322 83.1679 467.998 82.8789V83.746C467.654 83.8945 467.328 84 467.02 84.0625C466.715 84.1289 466.346 84.1621 465.912 84.1621ZM465.648 78.3203C465.133 78.3203 464.721 78.4882 464.412 78.8242C464.107 79.1601 463.928 79.625 463.873 80.2187H467.23C467.23 79.6054 467.094 79.1367 466.82 78.8125C466.547 78.4843 466.156 78.3203 465.648 78.3203ZM472.867 77.5058C473.152 77.5058 473.408 77.5293 473.635 77.5761L473.5 78.4785C473.234 78.4199 473 78.3906 472.797 78.3906C472.277 78.3906 471.832 78.6015 471.461 79.0234C471.094 79.4453 470.91 79.9707 470.91 80.5996V84.0449H469.938V77.623H470.74L470.852 78.8125H470.898C471.137 78.3945 471.424 78.0722 471.76 77.8457C472.096 77.6191 472.465 77.5058 472.867 77.5058ZM473.816 77.623H474.859L476.266 81.2851C476.574 82.121 476.766 82.7246 476.84 83.0957H476.887C476.938 82.8964 477.043 82.5566 477.203 82.0761C477.367 81.5918 477.898 80.1074 478.797 77.623H479.84L477.08 84.9355C476.807 85.6582 476.486 86.1699 476.119 86.4707C475.756 86.7753 475.309 86.9277 474.777 86.9277C474.48 86.9277 474.188 86.8945 473.898 86.8281V86.0488C474.113 86.0957 474.354 86.1191 474.619 86.1191C475.287 86.1191 475.764 85.7441 476.049 84.9941L476.406 84.08L473.816 77.623ZM487.949 84.0449L487.756 83.1308H487.709C487.389 83.5332 487.068 83.8066 486.748 83.9511C486.432 84.0918 486.035 84.1621 485.559 84.1621C484.922 84.1621 484.422 83.998 484.059 83.6699C483.699 83.3418 483.52 82.875 483.52 82.2695C483.52 80.9726 484.557 80.2929 486.631 80.2304L487.721 80.1953V79.7968C487.721 79.2929 487.611 78.9218 487.393 78.6835C487.178 78.4414 486.832 78.3203 486.355 78.3203C485.82 78.3203 485.215 78.4843 484.539 78.8125L484.24 78.0683C484.557 77.8964 484.902 77.7617 485.277 77.664C485.656 77.5664 486.035 77.5175 486.414 77.5175C487.18 77.5175 487.746 77.6875 488.113 78.0273C488.484 78.3671 488.67 78.9121 488.67 79.6621V84.0449H487.949ZM485.752 83.3593C486.357 83.3593 486.832 83.1933 487.176 82.8613C487.523 82.5293 487.697 82.0644 487.697 81.4668V80.8867L486.725 80.9277C485.951 80.955 485.393 81.0761 485.049 81.291C484.709 81.5019 484.539 81.832 484.539 82.2812C484.539 82.6328 484.645 82.9003 484.855 83.0839C485.07 83.2675 485.369 83.3593 485.752 83.3593ZM495.074 84.0449V79.8906C495.074 79.3671 494.955 78.9765 494.717 78.7187C494.479 78.4609 494.105 78.332 493.598 78.332C492.926 78.332 492.434 78.5136 492.121 78.8769C491.809 79.2402 491.652 79.8398 491.652 80.6757V84.0449H490.68V77.623H491.471L491.629 78.5019H491.676C491.875 78.1855 492.154 77.9414 492.514 77.7695C492.873 77.5937 493.273 77.5058 493.715 77.5058C494.488 77.5058 495.07 77.6933 495.461 78.0683C495.852 78.4394 496.047 79.0351 496.047 79.8554V84.0449H495.074ZM502.422 83.1835H502.369C501.92 83.8359 501.248 84.1621 500.354 84.1621C499.514 84.1621 498.859 83.875 498.391 83.3007C497.926 82.7265 497.693 81.9101 497.693 80.8515C497.693 79.7929 497.928 78.9707 498.396 78.3847C498.865 77.7988 499.518 77.5058 500.354 77.5058C501.225 77.5058 501.893 77.8222 502.357 78.455H502.434L502.393 77.9921L502.369 77.541V74.9277H503.342V84.0449H502.551L502.422 83.1835ZM500.477 83.3476C501.141 83.3476 501.621 83.1679 501.918 82.8085C502.219 82.4453 502.369 81.8613 502.369 81.0566V80.8515C502.369 79.9414 502.217 79.2929 501.912 78.9062C501.611 78.5156 501.129 78.3203 500.465 78.3203C499.895 78.3203 499.457 78.5429 499.152 78.9882C498.852 79.4296 498.701 80.0546 498.701 80.8632C498.701 81.6835 498.852 82.3027 499.152 82.7207C499.453 83.1386 499.895 83.3476 500.477 83.3476ZM511.516 77.5175C512.359 77.5175 513.014 77.8066 513.479 78.3847C513.947 78.9589 514.182 79.7734 514.182 80.8281C514.182 81.8828 513.945 82.7031 513.473 83.289C513.004 83.871 512.352 84.1621 511.516 84.1621C511.098 84.1621 510.715 84.0859 510.367 83.9335C510.023 83.7773 509.734 83.539 509.5 83.2187H509.43L509.225 84.0449H508.527V74.9277H509.5V77.1425C509.5 77.6386 509.484 78.0839 509.453 78.4785H509.5C509.953 77.8378 510.625 77.5175 511.516 77.5175ZM511.375 78.332C510.711 78.332 510.232 78.5234 509.939 78.9062C509.646 79.2851 509.5 79.9257 509.5 80.8281C509.5 81.7304 509.65 82.3769 509.951 82.7675C510.252 83.1543 510.734 83.3476 511.398 83.3476C511.996 83.3476 512.441 83.1308 512.734 82.6972C513.027 82.2597 513.174 81.6328 513.174 80.8164C513.174 79.9804 513.027 79.3574 512.734 78.9472C512.441 78.5371 511.988 78.332 511.375 78.332ZM516.801 77.623V81.789C516.801 82.3125 516.92 82.7031 517.158 82.9609C517.396 83.2187 517.77 83.3476 518.277 83.3476C518.949 83.3476 519.439 83.164 519.748 82.7968C520.061 82.4296 520.217 81.83 520.217 80.998V77.623H521.189V84.0449H520.387L520.246 83.1835H520.193C519.994 83.5 519.717 83.7421 519.361 83.9101C519.01 84.0781 518.607 84.1621 518.154 84.1621C517.373 84.1621 516.787 83.9765 516.396 83.6054C516.01 83.2343 515.816 82.6406 515.816 81.8242V77.623H516.801ZM526.188 77.5058C526.473 77.5058 526.729 77.5293 526.955 77.5761L526.82 78.4785C526.555 78.4199 526.32 78.3906 526.117 78.3906C525.598 78.3906 525.152 78.6015 524.781 79.0234C524.414 79.4453 524.23 79.9707 524.23 80.5996V84.0449H523.258V77.623H524.061L524.172 78.8125H524.219C524.457 78.3945 524.744 78.0722 525.08 77.8457C525.416 77.6191 525.785 77.5058 526.188 77.5058ZM532.551 84.0449V79.8906C532.551 79.3671 532.432 78.9765 532.193 78.7187C531.955 78.4609 531.582 78.332 531.074 78.332C530.402 78.332 529.91 78.5136 529.598 78.8769C529.285 79.2402 529.129 79.8398 529.129 80.6757V84.0449H528.156V77.623H528.947L529.105 78.5019H529.152C529.352 78.1855 529.631 77.9414 529.99 77.7695C530.35 77.5937 530.75 77.5058 531.191 77.5058C531.965 77.5058 532.547 77.6933 532.938 78.0683C533.328 78.4394 533.523 79.0351 533.523 79.8554V84.0449H532.551ZM536.5 84.0449H535.527V77.623H536.5V84.0449ZM535.445 75.8828C535.445 75.6601 535.5 75.498 535.609 75.3964C535.719 75.291 535.855 75.2382 536.02 75.2382C536.176 75.2382 536.311 75.291 536.424 75.3964C536.537 75.5019 536.594 75.664 536.594 75.8828C536.594 76.1015 536.537 76.2656 536.424 76.375C536.311 76.4804 536.176 76.5332 536.02 76.5332C535.855 76.5332 535.719 76.4804 535.609 76.375C535.5 76.2656 535.445 76.1015 535.445 75.8828ZM542.957 84.0449V79.8906C542.957 79.3671 542.838 78.9765 542.6 78.7187C542.361 78.4609 541.988 78.332 541.48 78.332C540.809 78.332 540.316 78.5136 540.004 78.8769C539.691 79.2402 539.535 79.8398 539.535 80.6757V84.0449H538.562V77.623H539.354L539.512 78.5019H539.559C539.758 78.1855 540.037 77.9414 540.396 77.7695C540.756 77.5937 541.156 77.5058 541.598 77.5058C542.371 77.5058 542.953 77.6933 543.344 78.0683C543.734 78.4394 543.93 79.0351 543.93 79.8554V84.0449H542.957ZM551.189 77.623V78.2382L550 78.3789C550.109 78.5156 550.207 78.6953 550.293 78.9179C550.379 79.1367 550.422 79.3847 550.422 79.6621C550.422 80.291 550.207 80.7929 549.777 81.1679C549.348 81.5429 548.758 81.7304 548.008 81.7304C547.816 81.7304 547.637 81.7148 547.469 81.6835C547.055 81.9023 546.848 82.1777 546.848 82.5097C546.848 82.6855 546.92 82.8164 547.064 82.9023C547.209 82.9843 547.457 83.0253 547.809 83.0253H548.945C549.641 83.0253 550.174 83.1718 550.545 83.4648C550.92 83.7578 551.107 84.1835 551.107 84.7421C551.107 85.4531 550.822 85.9941 550.252 86.3652C549.682 86.7402 548.85 86.9277 547.756 86.9277C546.916 86.9277 546.268 86.7714 545.811 86.4589C545.357 86.1464 545.131 85.705 545.131 85.1347C545.131 84.7441 545.256 84.4062 545.506 84.121C545.756 83.8359 546.107 83.6425 546.561 83.541C546.396 83.4668 546.258 83.3515 546.145 83.1953C546.035 83.039 545.98 82.8574 545.98 82.6503C545.98 82.416 546.043 82.2109 546.168 82.0351C546.293 81.8593 546.49 81.6894 546.76 81.5253C546.428 81.3886 546.156 81.1562 545.945 80.8281C545.738 80.5 545.635 80.125 545.635 79.7031C545.635 79 545.846 78.4589 546.268 78.08C546.689 77.6972 547.287 77.5058 548.061 77.5058C548.396 77.5058 548.699 77.5449 548.969 77.623H551.189ZM546.068 85.123C546.068 85.4707 546.215 85.7343 546.508 85.914C546.801 86.0937 547.221 86.1835 547.768 86.1835C548.584 86.1835 549.188 86.0605 549.578 85.8144C549.973 85.5722 550.17 85.2421 550.17 84.8242C550.17 84.4765 550.062 84.2343 549.848 84.0976C549.633 83.9648 549.229 83.8984 548.635 83.8984H547.469C547.027 83.8984 546.684 84.0039 546.438 84.2148C546.191 84.4257 546.068 84.7285 546.068 85.123ZM546.596 79.6796C546.596 80.1289 546.723 80.4687 546.977 80.6992C547.23 80.9296 547.584 81.0449 548.037 81.0449C548.986 81.0449 549.461 80.5839 549.461 79.6621C549.461 78.6972 548.98 78.2148 548.02 78.2148C547.562 78.2148 547.211 78.3378 546.965 78.5839C546.719 78.83 546.596 79.1953 546.596 79.6796Z" fill="white"/>
<path d="M374.827 107.775C375.729 107.775 376.438 108 376.953 108.449C377.473 108.894 377.733 109.506 377.733 110.283C377.733 111.17 377.45 111.865 376.883 112.369C376.321 112.873 375.543 113.125 374.551 113.125C373.586 113.125 372.85 112.971 372.342 112.662V111.724C372.616 111.9 372.955 112.039 373.362 112.141C373.768 112.238 374.168 112.287 374.563 112.287C375.25 112.287 375.784 112.125 376.162 111.801C376.545 111.476 376.737 111.008 376.737 110.394C376.737 109.199 376.004 108.601 374.539 108.601C374.168 108.601 373.672 108.658 373.051 108.771L372.547 108.449L372.87 104.441H377.129V105.338H373.702L373.485 107.91C373.934 107.82 374.381 107.775 374.827 107.775ZM379.848 106.996C379.848 107.66 379.92 108.158 380.065 108.49C380.209 108.822 380.444 108.988 380.768 108.988C381.409 108.988 381.729 108.324 381.729 106.996C381.729 105.676 381.409 105.016 380.768 105.016C380.444 105.016 380.209 105.18 380.065 105.508C379.92 105.836 379.848 106.332 379.848 106.996ZM382.532 106.996C382.532 107.887 382.381 108.56 382.08 109.017C381.784 109.471 381.346 109.697 380.768 109.697C380.221 109.697 379.795 109.465 379.491 109C379.19 108.535 379.039 107.867 379.039 106.996C379.039 106.109 379.184 105.441 379.473 104.992C379.766 104.543 380.198 104.318 380.768 104.318C381.334 104.318 381.77 104.551 382.075 105.016C382.379 105.48 382.532 106.141 382.532 106.996ZM385.004 110.43C385.004 111.098 385.077 111.598 385.221 111.93C385.366 112.258 385.602 112.422 385.93 112.422C386.258 112.422 386.5 112.26 386.657 111.935C386.813 111.607 386.891 111.105 386.891 110.43C386.891 109.762 386.813 109.267 386.657 108.947C386.5 108.623 386.258 108.461 385.93 108.461C385.602 108.461 385.366 108.623 385.221 108.947C385.077 109.267 385.004 109.762 385.004 110.43ZM387.694 110.43C387.694 111.316 387.543 111.988 387.243 112.445C386.946 112.898 386.508 113.125 385.93 113.125C385.375 113.125 384.948 112.892 384.647 112.428C384.35 111.963 384.202 111.297 384.202 110.43C384.202 109.543 384.346 108.875 384.635 108.426C384.928 107.976 385.36 107.752 385.93 107.752C386.485 107.752 386.916 107.982 387.225 108.443C387.537 108.9 387.694 109.562 387.694 110.43ZM386.182 104.441L381.43 113.008H380.569L385.321 104.441H386.182ZM396.272 105.209C395.33 105.209 394.586 105.523 394.039 106.152C393.496 106.777 393.225 107.635 393.225 108.724C393.225 109.846 393.487 110.713 394.01 111.326C394.537 111.935 395.287 112.24 396.26 112.24C396.858 112.24 397.539 112.133 398.305 111.918V112.791C397.711 113.014 396.979 113.125 396.108 113.125C394.846 113.125 393.871 112.742 393.184 111.976C392.5 111.211 392.159 110.123 392.159 108.713C392.159 107.83 392.323 107.057 392.651 106.392C392.983 105.728 393.459 105.217 394.08 104.857C394.705 104.498 395.44 104.318 396.284 104.318C397.182 104.318 397.967 104.482 398.639 104.81L398.217 105.666C397.569 105.361 396.92 105.209 396.272 105.209ZM405.571 109.791C405.571 110.838 405.307 111.656 404.78 112.246C404.252 112.832 403.524 113.125 402.594 113.125C402.02 113.125 401.51 112.99 401.065 112.721C400.62 112.451 400.276 112.064 400.034 111.56C399.791 111.057 399.67 110.467 399.67 109.791C399.67 108.744 399.932 107.93 400.455 107.348C400.979 106.762 401.705 106.469 402.635 106.469C403.534 106.469 404.246 106.767 404.774 107.365C405.305 107.963 405.571 108.771 405.571 109.791ZM400.678 109.791C400.678 110.611 400.842 111.236 401.17 111.666C401.498 112.096 401.981 112.31 402.618 112.31C403.254 112.31 403.737 112.098 404.065 111.672C404.397 111.242 404.563 110.615 404.563 109.791C404.563 108.974 404.397 108.355 404.065 107.933C403.737 107.508 403.25 107.295 402.606 107.295C401.969 107.295 401.489 107.504 401.164 107.922C400.84 108.34 400.678 108.963 400.678 109.791ZM411.676 113.008V108.853C411.676 108.33 411.557 107.939 411.319 107.682C411.08 107.424 410.707 107.295 410.2 107.295C409.528 107.295 409.036 107.476 408.723 107.84C408.411 108.203 408.254 108.803 408.254 109.639V113.008H407.282V106.586H408.073L408.231 107.465H408.278C408.477 107.148 408.756 106.904 409.116 106.732C409.475 106.557 409.875 106.469 410.317 106.469C411.09 106.469 411.672 106.656 412.063 107.031C412.453 107.402 412.649 107.998 412.649 108.818V113.008H411.676ZM416.727 112.322C416.899 112.322 417.065 112.31 417.225 112.287C417.385 112.26 417.512 112.232 417.606 112.205V112.949C417.5 113 417.344 113.041 417.137 113.072C416.934 113.107 416.75 113.125 416.586 113.125C415.344 113.125 414.723 112.471 414.723 111.162V107.342H413.803V106.873L414.723 106.469L415.133 105.098H415.696V106.586H417.559V107.342H415.696V111.121C415.696 111.508 415.787 111.805 415.971 112.012C416.155 112.219 416.407 112.322 416.727 112.322ZM421.608 113.125C420.659 113.125 419.909 112.836 419.358 112.258C418.811 111.68 418.537 110.877 418.537 109.849C418.537 108.814 418.791 107.992 419.299 107.383C419.811 106.773 420.496 106.469 421.356 106.469C422.161 106.469 422.797 106.734 423.266 107.266C423.735 107.793 423.969 108.49 423.969 109.357V109.973H419.545C419.565 110.726 419.754 111.299 420.114 111.689C420.477 112.08 420.987 112.275 421.643 112.275C422.334 112.275 423.018 112.131 423.694 111.842V112.709C423.35 112.857 423.024 112.963 422.715 113.025C422.411 113.092 422.041 113.125 421.608 113.125ZM421.344 107.283C420.828 107.283 420.416 107.451 420.108 107.787C419.803 108.123 419.623 108.588 419.569 109.182H422.926C422.926 108.568 422.789 108.099 422.516 107.775C422.243 107.447 421.852 107.283 421.344 107.283ZM429.776 111.256C429.776 111.853 429.553 112.314 429.108 112.639C428.662 112.963 428.037 113.125 427.233 113.125C426.381 113.125 425.717 112.99 425.241 112.721V111.818C425.549 111.974 425.879 112.098 426.231 112.187C426.586 112.277 426.928 112.322 427.256 112.322C427.764 112.322 428.155 112.242 428.428 112.082C428.702 111.918 428.838 111.67 428.838 111.338C428.838 111.088 428.729 110.875 428.51 110.699C428.295 110.519 427.873 110.308 427.245 110.066C426.647 109.844 426.221 109.65 425.967 109.486C425.717 109.318 425.53 109.129 425.405 108.918C425.284 108.707 425.223 108.455 425.223 108.162C425.223 107.639 425.436 107.226 425.862 106.926C426.287 106.621 426.871 106.469 427.614 106.469C428.305 106.469 428.981 106.609 429.641 106.891L429.295 107.682C428.651 107.416 428.067 107.283 427.543 107.283C427.082 107.283 426.735 107.355 426.5 107.5C426.266 107.644 426.149 107.844 426.149 108.098C426.149 108.269 426.192 108.416 426.278 108.537C426.368 108.658 426.51 108.773 426.705 108.883C426.901 108.992 427.276 109.15 427.83 109.357C428.592 109.635 429.106 109.914 429.371 110.195C429.641 110.476 429.776 110.83 429.776 111.256ZM433.438 112.322C433.61 112.322 433.776 112.31 433.936 112.287C434.096 112.26 434.223 112.232 434.317 112.205V112.949C434.211 113 434.055 113.041 433.848 113.072C433.645 113.107 433.461 113.125 433.297 113.125C432.055 113.125 431.434 112.471 431.434 111.162V107.342H430.514V106.873L431.434 106.469L431.844 105.098H432.407V106.586H434.27V107.342H432.407V111.121C432.407 111.508 432.498 111.805 432.682 112.012C432.866 112.219 433.118 112.322 433.438 112.322ZM439.748 111.256C439.748 111.853 439.526 112.314 439.08 112.639C438.635 112.963 438.01 113.125 437.205 113.125C436.354 113.125 435.69 112.99 435.213 112.721V111.818C435.522 111.974 435.852 112.098 436.203 112.187C436.559 112.277 436.901 112.322 437.229 112.322C437.737 112.322 438.127 112.242 438.401 112.082C438.674 111.918 438.811 111.67 438.811 111.338C438.811 111.088 438.702 110.875 438.483 110.699C438.268 110.519 437.846 110.308 437.217 110.066C436.62 109.844 436.194 109.65 435.94 109.486C435.69 109.318 435.502 109.129 435.377 108.918C435.256 108.707 435.196 108.455 435.196 108.162C435.196 107.639 435.409 107.226 435.834 106.926C436.26 106.621 436.844 106.469 437.586 106.469C438.278 106.469 438.953 106.609 439.614 106.891L439.268 107.682C438.623 107.416 438.039 107.283 437.516 107.283C437.055 107.283 436.707 107.355 436.473 107.5C436.239 107.644 436.121 107.844 436.121 108.098C436.121 108.269 436.164 108.416 436.25 108.537C436.34 108.658 436.483 108.773 436.678 108.883C436.873 108.992 437.248 109.15 437.803 109.357C438.565 109.635 439.078 109.914 439.344 110.195C439.614 110.476 439.748 110.83 439.748 111.256Z" fill="white"/>
<path d="M376.946 133.912C377.848 133.912 378.557 134.137 379.073 134.586C379.592 135.032 379.852 135.643 379.852 136.42C379.852 137.307 379.569 138.002 379.002 138.506C378.44 139.01 377.662 139.262 376.67 139.262C375.705 139.262 374.969 139.108 374.461 138.799V137.862C374.735 138.037 375.075 138.176 375.481 138.278C375.887 138.375 376.287 138.424 376.682 138.424C377.37 138.424 377.903 138.262 378.282 137.938C378.664 137.614 378.856 137.145 378.856 136.532C378.856 135.336 378.123 134.739 376.659 134.739C376.287 134.739 375.791 134.795 375.17 134.909L374.666 134.586L374.989 130.578H379.248V131.475H375.821L375.604 134.047C376.053 133.957 376.5 133.912 376.946 133.912ZM381.967 133.133C381.967 133.797 382.039 134.295 382.184 134.627C382.328 134.959 382.563 135.125 382.887 135.125C383.528 135.125 383.848 134.461 383.848 133.133C383.848 131.813 383.528 131.153 382.887 131.153C382.563 131.153 382.328 131.317 382.184 131.645C382.039 131.973 381.967 132.469 381.967 133.133ZM384.651 133.133C384.651 134.024 384.5 134.698 384.2 135.155C383.903 135.608 383.465 135.834 382.887 135.834C382.34 135.834 381.914 135.602 381.61 135.137C381.309 134.672 381.159 134.004 381.159 133.133C381.159 132.246 381.303 131.578 381.592 131.129C381.885 130.68 382.317 130.455 382.887 130.455C383.453 130.455 383.889 130.688 384.194 131.153C384.498 131.618 384.651 132.278 384.651 133.133ZM387.123 136.567C387.123 137.235 387.196 137.735 387.34 138.067C387.485 138.395 387.721 138.559 388.049 138.559C388.377 138.559 388.62 138.397 388.776 138.073C388.932 137.744 389.01 137.243 389.01 136.567C389.01 135.899 388.932 135.405 388.776 135.084C388.62 134.76 388.377 134.598 388.049 134.598C387.721 134.598 387.485 134.76 387.34 135.084C387.196 135.405 387.123 135.899 387.123 136.567ZM389.813 136.567C389.813 137.453 389.662 138.125 389.362 138.582C389.065 139.035 388.627 139.262 388.049 139.262C387.495 139.262 387.067 139.03 386.766 138.565C386.469 138.1 386.321 137.434 386.321 136.567C386.321 135.68 386.465 135.012 386.754 134.563C387.047 134.114 387.479 133.889 388.049 133.889C388.604 133.889 389.036 134.119 389.344 134.58C389.657 135.037 389.813 135.7 389.813 136.567ZM388.301 130.578L383.549 139.145H382.688L387.44 130.578H388.301ZM398.514 139.145L395.608 131.551H395.561C395.616 132.153 395.643 132.868 395.643 133.696V139.145H394.723V130.578H396.223L398.936 137.645H398.983L401.719 130.578H403.207V139.145H402.211V133.625C402.211 132.993 402.239 132.305 402.293 131.563H402.246L399.317 139.145H398.514ZM409.366 139.145L409.172 138.231H409.125C408.805 138.633 408.485 138.907 408.164 139.051C407.848 139.192 407.452 139.262 406.975 139.262C406.338 139.262 405.838 139.098 405.475 138.77C405.116 138.442 404.936 137.975 404.936 137.369C404.936 136.073 405.973 135.393 408.047 135.33L409.137 135.295V134.897C409.137 134.393 409.028 134.022 408.809 133.784C408.594 133.541 408.248 133.42 407.772 133.42C407.237 133.42 406.631 133.584 405.955 133.912L405.657 133.168C405.973 132.996 406.319 132.862 406.694 132.764C407.073 132.666 407.452 132.618 407.83 132.618C408.596 132.618 409.162 132.787 409.53 133.127C409.901 133.467 410.086 134.012 410.086 134.762V139.145H409.366ZM407.168 138.459C407.774 138.459 408.248 138.293 408.592 137.961C408.94 137.629 409.114 137.164 409.114 136.567V135.987L408.141 136.028C407.368 136.055 406.809 136.176 406.465 136.391C406.125 136.602 405.955 136.932 405.955 137.381C405.955 137.733 406.061 138 406.272 138.184C406.487 138.368 406.786 138.459 407.168 138.459ZM415.026 132.606C415.311 132.606 415.567 132.629 415.793 132.676L415.659 133.578C415.393 133.52 415.159 133.491 414.955 133.491C414.436 133.491 413.991 133.702 413.62 134.123C413.252 134.545 413.069 135.071 413.069 135.7V139.145H412.096V132.723H412.899L413.01 133.912H413.057C413.295 133.494 413.582 133.172 413.918 132.946C414.254 132.719 414.623 132.606 415.026 132.606ZM417.955 135.858C418.123 135.619 418.379 135.307 418.723 134.92L420.797 132.723H421.952L419.35 135.459L422.133 139.145H420.955L418.688 136.11L417.955 136.743V139.145H416.995V130.028H417.955V134.862C417.955 135.077 417.94 135.409 417.909 135.858H417.955ZM426.012 139.262C425.063 139.262 424.313 138.973 423.762 138.395C423.215 137.817 422.942 137.014 422.942 135.987C422.942 134.952 423.196 134.129 423.703 133.52C424.215 132.91 424.901 132.606 425.76 132.606C426.565 132.606 427.202 132.871 427.67 133.403C428.139 133.93 428.373 134.627 428.373 135.494V136.11H423.95C423.969 136.864 424.159 137.436 424.518 137.827C424.881 138.217 425.391 138.412 426.047 138.412C426.739 138.412 427.422 138.268 428.098 137.979V138.846C427.754 138.994 427.428 139.1 427.12 139.162C426.815 139.229 426.446 139.262 426.012 139.262ZM425.748 133.42C425.233 133.42 424.821 133.588 424.512 133.924C424.207 134.26 424.028 134.725 423.973 135.319H427.33C427.33 134.705 427.194 134.237 426.92 133.912C426.647 133.584 426.256 133.42 425.748 133.42ZM432.112 138.459C432.284 138.459 432.45 138.448 432.61 138.424C432.77 138.397 432.897 138.369 432.991 138.342V139.086C432.885 139.137 432.729 139.178 432.522 139.209C432.319 139.244 432.135 139.262 431.971 139.262C430.729 139.262 430.108 138.608 430.108 137.299V133.479H429.188V133.01L430.108 132.606L430.518 131.235H431.08V132.723H432.944V133.479H431.08V137.258C431.08 137.645 431.172 137.942 431.356 138.149C431.539 138.356 431.791 138.459 432.112 138.459ZM435.252 139.145H434.28V132.723H435.252V139.145ZM434.198 130.983C434.198 130.76 434.252 130.598 434.362 130.496C434.471 130.391 434.608 130.338 434.772 130.338C434.928 130.338 435.063 130.391 435.176 130.496C435.289 130.602 435.346 130.764 435.346 130.983C435.346 131.202 435.289 131.366 435.176 131.475C435.063 131.58 434.928 131.633 434.772 131.633C434.608 131.633 434.471 131.58 434.362 131.475C434.252 131.366 434.198 131.202 434.198 130.983ZM441.709 139.145V134.991C441.709 134.467 441.59 134.077 441.352 133.819C441.114 133.561 440.741 133.432 440.233 133.432C439.561 133.432 439.069 133.614 438.756 133.977C438.444 134.34 438.287 134.94 438.287 135.776V139.145H437.315V132.723H438.106L438.264 133.602H438.311C438.51 133.285 438.789 133.041 439.149 132.869C439.508 132.694 439.909 132.606 440.35 132.606C441.123 132.606 441.705 132.793 442.096 133.168C442.487 133.539 442.682 134.135 442.682 134.955V139.145H441.709ZM449.942 132.723V133.338L448.752 133.479C448.862 133.616 448.959 133.795 449.045 134.018C449.131 134.237 449.174 134.485 449.174 134.762C449.174 135.391 448.959 135.893 448.53 136.268C448.1 136.643 447.51 136.83 446.76 136.83C446.569 136.83 446.389 136.815 446.221 136.784C445.807 137.002 445.6 137.278 445.6 137.61C445.6 137.785 445.672 137.916 445.817 138.002C445.961 138.084 446.209 138.125 446.561 138.125H447.698C448.393 138.125 448.926 138.272 449.297 138.565C449.672 138.858 449.86 139.284 449.86 139.842C449.86 140.553 449.575 141.094 449.004 141.465C448.434 141.84 447.602 142.028 446.508 142.028C445.668 142.028 445.02 141.871 444.563 141.559C444.11 141.246 443.883 140.805 443.883 140.235C443.883 139.844 444.008 139.506 444.258 139.221C444.508 138.936 444.86 138.743 445.313 138.641C445.149 138.567 445.01 138.452 444.897 138.295C444.787 138.139 444.733 137.957 444.733 137.75C444.733 137.516 444.795 137.311 444.92 137.135C445.045 136.959 445.243 136.789 445.512 136.625C445.18 136.489 444.909 136.256 444.698 135.928C444.491 135.6 444.387 135.225 444.387 134.803C444.387 134.1 444.598 133.559 445.02 133.18C445.442 132.797 446.039 132.606 446.813 132.606C447.149 132.606 447.452 132.645 447.721 132.723H449.942ZM444.821 140.223C444.821 140.571 444.967 140.834 445.26 141.014C445.553 141.194 445.973 141.284 446.52 141.284C447.336 141.284 447.94 141.16 448.33 140.914C448.725 140.672 448.922 140.342 448.922 139.924C448.922 139.577 448.815 139.334 448.6 139.198C448.385 139.065 447.981 138.998 447.387 138.998H446.221C445.78 138.998 445.436 139.104 445.19 139.315C444.944 139.526 444.821 139.828 444.821 140.223ZM445.348 134.78C445.348 135.229 445.475 135.569 445.729 135.799C445.983 136.03 446.336 136.145 446.789 136.145C447.739 136.145 448.213 135.684 448.213 134.762C448.213 133.797 447.733 133.315 446.772 133.315C446.315 133.315 445.963 133.438 445.717 133.684C445.471 133.93 445.348 134.295 445.348 134.78Z" fill="white"/>
<path d="M15.4219 319.773C16.2031 319.773 16.8223 319.955 17.2793 320.318C17.7363 320.682 17.9648 321.184 17.9648 321.824C17.9648 322.246 17.834 322.631 17.5723 322.978C17.3105 323.326 16.8926 323.643 16.3184 323.928C17.0137 324.26 17.5078 324.609 17.8008 324.977C18.0938 325.34 18.2402 325.762 18.2402 326.242C18.2402 326.953 17.9922 327.521 17.4961 327.947C17 328.369 16.3203 328.58 15.457 328.58C14.543 328.58 13.8398 328.381 13.3477 327.982C12.8555 327.58 12.6094 327.012 12.6094 326.277C12.6094 325.297 13.207 324.533 14.4023 323.986C13.8633 323.682 13.4766 323.353 13.2422 323.002C13.0078 322.646 12.8906 322.25 12.8906 321.812C12.8906 321.191 13.1191 320.697 13.5762 320.33C14.0371 319.959 14.6523 319.773 15.4219 319.773ZM13.5703 326.301C13.5703 326.769 13.7324 327.135 14.0566 327.396C14.3848 327.658 14.8438 327.789 15.4336 327.789C16.0156 327.789 16.4688 327.652 16.793 327.379C17.1172 327.105 17.2793 326.73 17.2793 326.254C17.2793 325.875 17.127 325.539 16.8223 325.246C16.5176 324.949 15.9863 324.662 15.2285 324.385C14.6465 324.635 14.2246 324.912 13.9629 325.217C13.7012 325.518 13.5703 325.879 13.5703 326.301ZM15.4102 320.564C14.9219 320.564 14.5391 320.682 14.2617 320.916C13.9844 321.15 13.8457 321.463 13.8457 321.853C13.8457 322.213 13.9609 322.521 14.1914 322.779C14.4219 323.037 14.8477 323.295 15.4688 323.553C16.0273 323.318 16.4219 323.066 16.6523 322.797C16.8867 322.527 17.0039 322.213 17.0039 321.853C17.0039 321.459 16.8613 321.146 16.5762 320.916C16.2949 320.682 15.9062 320.564 15.4102 320.564ZM25.1309 324.168C25.1309 325.648 24.8965 326.754 24.4277 327.484C23.9629 328.215 23.25 328.58 22.2891 328.58C21.3672 328.58 20.666 328.207 20.1855 327.461C19.7051 326.711 19.4648 325.613 19.4648 324.168C19.4648 322.676 19.6973 321.568 20.1621 320.846C20.627 320.123 21.3359 319.762 22.2891 319.762C23.2188 319.762 23.9238 320.139 24.4043 320.893C24.8887 321.646 25.1309 322.738 25.1309 324.168ZM20.4492 324.168C20.4492 325.414 20.5957 326.322 20.8887 326.893C21.1816 327.459 21.6484 327.742 22.2891 327.742C22.9375 327.742 23.4062 327.455 23.6953 326.881C23.9883 326.303 24.1348 325.398 24.1348 324.168C24.1348 322.937 23.9883 322.037 23.6953 321.467C23.4062 320.893 22.9375 320.605 22.2891 320.605C21.6484 320.605 21.1816 320.889 20.8887 321.455C20.5957 322.018 20.4492 322.922 20.4492 324.168ZM27.1523 322.451C27.1523 323.115 27.2246 323.613 27.3691 323.945C27.5137 324.277 27.748 324.443 28.0723 324.443C28.7129 324.443 29.0332 323.779 29.0332 322.451C29.0332 321.131 28.7129 320.471 28.0723 320.471C27.748 320.471 27.5137 320.635 27.3691 320.963C27.2246 321.291 27.1523 321.787 27.1523 322.451ZM29.8359 322.451C29.8359 323.342 29.6855 324.016 29.3848 324.473C29.0879 324.926 28.6504 325.152 28.0723 325.152C27.5254 325.152 27.0996 324.92 26.7949 324.455C26.4941 323.99 26.3438 323.322 26.3438 322.451C26.3438 321.564 26.4883 320.896 26.7773 320.447C27.0703 319.998 27.502 319.773 28.0723 319.773C28.6387 319.773 29.0742 320.006 29.3789 320.471C29.6836 320.935 29.8359 321.596 29.8359 322.451ZM32.3086 325.885C32.3086 326.553 32.3809 327.053 32.5254 327.385C32.6699 327.713 32.9062 327.877 33.2344 327.877C33.5625 327.877 33.8047 327.715 33.9609 327.391C34.1172 327.062 34.1953 326.56 34.1953 325.885C34.1953 325.217 34.1172 324.723 33.9609 324.402C33.8047 324.078 33.5625 323.916 33.2344 323.916C32.9062 323.916 32.6699 324.078 32.5254 324.402C32.3809 324.723 32.3086 325.217 32.3086 325.885ZM34.998 325.885C34.998 326.771 34.8477 327.443 34.5469 327.9C34.25 328.353 33.8125 328.58 33.2344 328.58C32.6797 328.58 32.252 328.348 31.9512 327.883C31.6543 327.418 31.5059 326.752 31.5059 325.885C31.5059 324.998 31.6504 324.33 31.9395 323.881C32.2324 323.432 32.6641 323.207 33.2344 323.207C33.7891 323.207 34.2207 323.437 34.5293 323.898C34.8418 324.355 34.998 325.018 34.998 325.885ZM33.4863 319.896L28.7344 328.463H27.873L32.625 319.896H33.4863ZM13.1777 344.463V335.896H14.1738V343.56H17.9531V344.463H13.1777ZM20.2383 344.463H19.2656V338.041H20.2383V344.463ZM19.1836 336.301C19.1836 336.078 19.2383 335.916 19.3477 335.814C19.457 335.709 19.5938 335.656 19.7578 335.656C19.9141 335.656 20.0488 335.709 20.1621 335.814C20.2754 335.92 20.332 336.082 20.332 336.301C20.332 336.519 20.2754 336.684 20.1621 336.793C20.0488 336.898 19.9141 336.951 19.7578 336.951C19.5938 336.951 19.457 336.898 19.3477 336.793C19.2383 336.684 19.1836 336.519 19.1836 336.301ZM24.7266 343.766C25.375 343.766 25.8477 343.592 26.1445 343.244C26.4414 342.896 26.5996 342.31 26.6191 341.486V341.269C26.6191 340.371 26.4668 339.725 26.1621 339.33C25.8574 338.935 25.375 338.738 24.7148 338.738C24.1445 338.738 23.707 338.961 23.4023 339.406C23.1016 339.848 22.9512 340.473 22.9512 341.281C22.9512 342.09 23.0996 342.707 23.3965 343.133C23.6973 343.555 24.1406 343.766 24.7266 343.766ZM24.5801 344.58C23.752 344.58 23.1055 344.289 22.6406 343.707C22.1758 343.125 21.9434 342.312 21.9434 341.269C21.9434 340.219 22.1777 339.398 22.6465 338.809C23.1152 338.219 23.7676 337.924 24.6035 337.924C25.4824 337.924 26.1582 338.256 26.6309 338.92H26.6836L26.8242 338.041H27.5918V347.346H26.6191V344.598C26.6191 344.207 26.6406 343.875 26.6836 343.602H26.6074C26.1582 344.254 25.4824 344.58 24.5801 344.58ZM30.5742 338.041V342.207C30.5742 342.73 30.6934 343.121 30.9316 343.379C31.1699 343.637 31.543 343.766 32.0508 343.766C32.7227 343.766 33.2129 343.582 33.5215 343.215C33.834 342.848 33.9902 342.248 33.9902 341.416V338.041H34.9629V344.463H34.1602L34.0195 343.602H33.9668C33.7676 343.918 33.4902 344.16 33.1348 344.328C32.7832 344.496 32.3809 344.58 31.9277 344.58C31.1465 344.58 30.5605 344.394 30.1699 344.023C29.7832 343.652 29.5898 343.059 29.5898 342.242V338.041H30.5742ZM38.0039 344.463H37.0312V338.041H38.0039V344.463ZM36.9492 336.301C36.9492 336.078 37.0039 335.916 37.1133 335.814C37.2227 335.709 37.3594 335.656 37.5234 335.656C37.6797 335.656 37.8145 335.709 37.9277 335.814C38.041 335.92 38.0977 336.082 38.0977 336.301C38.0977 336.519 38.041 336.684 37.9277 336.793C37.8145 336.898 37.6797 336.951 37.5234 336.951C37.3594 336.951 37.2227 336.898 37.1133 336.793C37.0039 336.684 36.9492 336.519 36.9492 336.301ZM44.4375 343.602H44.3848C43.9355 344.254 43.2637 344.58 42.3691 344.58C41.5293 344.58 40.875 344.293 40.4062 343.719C39.9414 343.144 39.709 342.328 39.709 341.269C39.709 340.211 39.9434 339.389 40.4121 338.803C40.8809 338.217 41.5332 337.924 42.3691 337.924C43.2402 337.924 43.9082 338.24 44.373 338.873H44.4492L44.4082 338.41L44.3848 337.959V335.346H45.3574V344.463H44.5664L44.4375 343.602ZM42.4922 343.766C43.1562 343.766 43.6367 343.586 43.9336 343.227C44.2344 342.863 44.3848 342.279 44.3848 341.475V341.269C44.3848 340.359 44.2324 339.711 43.9277 339.324C43.627 338.934 43.1445 338.738 42.4805 338.738C41.9102 338.738 41.4727 338.961 41.168 339.406C40.8672 339.848 40.7168 340.473 40.7168 341.281C40.7168 342.102 40.8672 342.721 41.168 343.139C41.4688 343.557 41.9102 343.766 42.4922 343.766ZM48.3984 344.463H47.4258V338.041H48.3984V344.463ZM47.3438 336.301C47.3438 336.078 47.3984 335.916 47.5078 335.814C47.6172 335.709 47.7539 335.656 47.918 335.656C48.0742 335.656 48.209 335.709 48.3223 335.814C48.4355 335.92 48.4922 336.082 48.4922 336.301C48.4922 336.519 48.4355 336.684 48.3223 336.793C48.209 336.898 48.0742 336.951 47.918 336.951C47.7539 336.951 47.6172 336.898 47.5078 336.793C47.3984 336.684 47.3438 336.519 47.3438 336.301ZM52.5352 343.777C52.707 343.777 52.873 343.766 53.0332 343.742C53.1934 343.715 53.3203 343.687 53.4141 343.66V344.404C53.3086 344.455 53.1523 344.496 52.9453 344.527C52.7422 344.562 52.5586 344.58 52.3945 344.58C51.1523 344.58 50.5312 343.926 50.5312 342.617V338.797H49.6113V338.328L50.5312 337.924L50.9414 336.553H51.5039V338.041H53.3672V338.797H51.5039V342.576C51.5039 342.963 51.5957 343.26 51.7793 343.467C51.9629 343.674 52.2148 343.777 52.5352 343.777ZM53.6836 338.041H54.7266L56.1328 341.703C56.4414 342.539 56.6328 343.143 56.707 343.514H56.7539C56.8047 343.314 56.9102 342.975 57.0703 342.494C57.2344 342.01 57.7656 340.525 58.6641 338.041H59.707L56.9473 345.353C56.6738 346.076 56.3535 346.588 55.9863 346.889C55.623 347.193 55.1758 347.346 54.6445 347.346C54.3477 347.346 54.0547 347.312 53.7656 347.246V346.467C53.9805 346.514 54.2207 346.537 54.4863 346.537C55.1543 346.537 55.6309 346.162 55.916 345.412L56.2734 344.498L53.6836 338.041Z" fill="white"/>
</svg>
