<svg width="563" height="365" viewBox="0 0 563 365" fill="none" xmlns="http://www.w3.org/2000/svg">
<circle cx="220.039" cy="211.506" r="75.9363" transform="rotate(-32.9896 220.039 211.506)" fill="#7DF8FA"/>
<path d="M285.477 120.96C304.859 135.074 319.163 155.071 326.259 177.973C333.355 200.876 332.862 225.457 324.855 248.057C316.848 270.656 301.755 290.065 281.823 303.391C261.892 316.718 238.189 323.249 214.245 322.012C190.3 320.775 167.396 311.837 148.944 296.528C130.491 281.219 117.478 260.359 111.842 237.055C106.205 213.75 108.248 189.249 117.666 167.199C127.083 145.15 143.371 126.733 164.104 114.691L219.983 210.901L285.477 120.96Z" fill="#A147E7"/>
<path d="M280.614 117.667C292.858 125.64 303.411 135.947 311.672 147.998C319.932 160.05 325.738 173.61 328.758 187.906C331.778 202.201 331.952 216.951 329.271 231.314C326.591 245.677 321.107 259.371 313.134 271.615C305.161 283.858 294.855 294.411 282.803 302.672C270.751 310.932 257.191 316.738 242.895 319.758C228.6 322.778 213.85 322.952 199.487 320.271C185.124 317.591 171.43 312.107 159.187 304.134L219.901 210.901L280.614 117.667Z" fill="#CA23F3"/>
<path d="M267.38 12.14H263.08V9H275.62V12.14H271.34V23H267.38V12.14ZM281.008 11.98C282.808 11.98 284.181 12.3933 285.128 13.22C286.075 14.0333 286.548 15.2867 286.548 16.98V23H283.008V21.6C282.461 22.6533 281.395 23.18 279.808 23.18C278.968 23.18 278.241 23.0333 277.628 22.74C277.015 22.4467 276.548 22.0533 276.228 21.56C275.921 21.0533 275.768 20.48 275.768 19.84C275.768 18.8133 276.161 18.02 276.948 17.46C277.735 16.8867 278.948 16.6 280.588 16.6H282.748C282.681 15.4533 281.915 14.88 280.448 14.88C279.928 14.88 279.401 14.9667 278.868 15.14C278.335 15.3 277.881 15.5267 277.508 15.82L276.228 13.24C276.828 12.84 277.555 12.5333 278.408 12.32C279.275 12.0933 280.141 11.98 281.008 11.98ZM280.868 20.78C281.308 20.78 281.695 20.6733 282.028 20.46C282.361 20.2467 282.601 19.9333 282.748 19.52V18.58H281.108C280.001 18.58 279.448 18.9467 279.448 19.68C279.448 20.0133 279.575 20.28 279.828 20.48C280.081 20.68 280.428 20.78 280.868 20.78ZM295.827 23L293.887 20.16L291.807 23H287.687L291.807 17.58L287.807 12.16H292.087L294.007 14.9L296.007 12.16H300.027L296.027 17.44L300.167 23H295.827Z" fill="white"/>
<path d="M365.264 75.7676C366.166 75.7676 366.875 75.9922 367.391 76.4414C367.91 76.8867 368.17 77.498 368.17 78.2754C368.17 79.1621 367.887 79.8574 367.32 80.3613C366.758 80.8652 365.98 81.1172 364.988 81.1172C364.023 81.1172 363.287 80.9629 362.779 80.6543V79.7168C363.053 79.8926 363.393 80.0312 363.799 80.1328C364.205 80.2305 364.605 80.2793 365 80.2793C365.688 80.2793 366.221 80.1172 366.6 79.793C366.982 79.4688 367.174 79 367.174 78.3867C367.174 77.1914 366.441 76.5938 364.977 76.5938C364.605 76.5938 364.109 76.6504 363.488 76.7637L362.984 76.4414L363.307 72.4336H367.566V73.3301H364.139L363.922 75.9023C364.371 75.8125 364.818 75.7676 365.264 75.7676ZM370.285 74.9883C370.285 75.6523 370.357 76.1504 370.502 76.4824C370.646 76.8145 370.881 76.9805 371.205 76.9805C371.846 76.9805 372.166 76.3164 372.166 74.9883C372.166 73.668 371.846 73.0078 371.205 73.0078C370.881 73.0078 370.646 73.1719 370.502 73.5C370.357 73.8281 370.285 74.3242 370.285 74.9883ZM372.969 74.9883C372.969 75.8789 372.818 76.5527 372.518 77.0098C372.221 77.4629 371.783 77.6895 371.205 77.6895C370.658 77.6895 370.232 77.457 369.928 76.9922C369.627 76.5273 369.477 75.8594 369.477 74.9883C369.477 74.1016 369.621 73.4336 369.91 72.9844C370.203 72.5352 370.635 72.3105 371.205 72.3105C371.771 72.3105 372.207 72.543 372.512 73.0078C372.816 73.4727 372.969 74.1328 372.969 74.9883ZM375.441 78.4219C375.441 79.0898 375.514 79.5898 375.658 79.9219C375.803 80.25 376.039 80.4141 376.367 80.4141C376.695 80.4141 376.938 80.252 377.094 79.9277C377.25 79.5996 377.328 79.0977 377.328 78.4219C377.328 77.7539 377.25 77.2598 377.094 76.9395C376.938 76.6152 376.695 76.4531 376.367 76.4531C376.039 76.4531 375.803 76.6152 375.658 76.9395C375.514 77.2598 375.441 77.7539 375.441 78.4219ZM378.131 78.4219C378.131 79.3086 377.98 79.9805 377.68 80.4375C377.383 80.8906 376.945 81.1172 376.367 81.1172C375.812 81.1172 375.385 80.8848 375.084 80.4199C374.787 79.9551 374.639 79.2891 374.639 78.4219C374.639 77.5352 374.783 76.8672 375.072 76.418C375.365 75.9688 375.797 75.7441 376.367 75.7441C376.922 75.7441 377.354 75.9746 377.662 76.4355C377.975 76.8926 378.131 77.5547 378.131 78.4219ZM376.619 72.4336L371.867 81H371.006L375.758 72.4336H376.619ZM384.037 77.4375V81H383.041V72.4336H385.391C386.441 72.4336 387.217 72.6348 387.717 73.0371C388.221 73.4395 388.473 74.0449 388.473 74.8535C388.473 75.9863 387.898 76.752 386.75 77.1504L389.076 81H387.898L385.824 77.4375H384.037ZM384.037 76.582H385.402C386.105 76.582 386.621 76.4434 386.949 76.166C387.277 75.8848 387.441 75.4648 387.441 74.9062C387.441 74.3398 387.273 73.9316 386.938 73.6816C386.605 73.4316 386.07 73.3066 385.332 73.3066H384.037V76.582ZM393.025 81.1172C392.076 81.1172 391.326 80.8281 390.775 80.25C390.229 79.6719 389.955 78.8691 389.955 77.8418C389.955 76.8066 390.209 75.9844 390.717 75.375C391.229 74.7656 391.914 74.4609 392.773 74.4609C393.578 74.4609 394.215 74.7266 394.684 75.2578C395.152 75.7852 395.387 76.4824 395.387 77.3496V77.9648H390.963C390.982 78.7188 391.172 79.291 391.531 79.6816C391.895 80.0723 392.404 80.2676 393.061 80.2676C393.752 80.2676 394.436 80.123 395.111 79.834V80.7012C394.768 80.8496 394.441 80.9551 394.133 81.0176C393.828 81.084 393.459 81.1172 393.025 81.1172ZM392.762 75.2754C392.246 75.2754 391.834 75.4434 391.525 75.7793C391.221 76.1152 391.041 76.5801 390.986 77.1738H394.344C394.344 76.5605 394.207 76.0918 393.934 75.7676C393.66 75.4395 393.27 75.2754 392.762 75.2754ZM400.039 81.1172C399.621 81.1172 399.238 81.041 398.891 80.8887C398.547 80.7324 398.258 80.4941 398.023 80.1738H397.953C398 80.5488 398.023 80.9043 398.023 81.2402V83.8828H397.051V74.5781H397.842L397.977 75.457H398.023C398.273 75.1055 398.564 74.8516 398.896 74.6953C399.229 74.5391 399.609 74.4609 400.039 74.4609C400.891 74.4609 401.547 74.752 402.008 75.334C402.473 75.916 402.705 76.7324 402.705 77.7832C402.705 78.8379 402.469 79.6582 401.996 80.2441C401.527 80.8262 400.875 81.1172 400.039 81.1172ZM399.898 75.2871C399.242 75.2871 398.768 75.4688 398.475 75.832C398.182 76.1953 398.031 76.7734 398.023 77.5664V77.7832C398.023 78.6855 398.174 79.332 398.475 79.7227C398.775 80.1094 399.258 80.3027 399.922 80.3027C400.477 80.3027 400.91 80.0781 401.223 79.6289C401.539 79.1797 401.697 78.5605 401.697 77.7715C401.697 76.9707 401.539 76.3574 401.223 75.9316C400.91 75.502 400.469 75.2871 399.898 75.2871ZM405.383 81H404.41V71.8828H405.383V81ZM410.158 81.1172C409.209 81.1172 408.459 80.8281 407.908 80.25C407.361 79.6719 407.088 78.8691 407.088 77.8418C407.088 76.8066 407.342 75.9844 407.85 75.375C408.361 74.7656 409.047 74.4609 409.906 74.4609C410.711 74.4609 411.348 74.7266 411.816 75.2578C412.285 75.7852 412.52 76.4824 412.52 77.3496V77.9648H408.096C408.115 78.7188 408.305 79.291 408.664 79.6816C409.027 80.0723 409.537 80.2676 410.193 80.2676C410.885 80.2676 411.568 80.123 412.244 79.834V80.7012C411.9 80.8496 411.574 80.9551 411.266 81.0176C410.961 81.084 410.592 81.1172 410.158 81.1172ZM409.895 75.2754C409.379 75.2754 408.967 75.4434 408.658 75.7793C408.354 76.1152 408.174 76.5801 408.119 77.1738H411.477C411.477 76.5605 411.34 76.0918 411.066 75.7676C410.793 75.4395 410.402 75.2754 409.895 75.2754ZM418.578 81V76.8457C418.578 76.3223 418.459 75.9316 418.221 75.6738C417.982 75.416 417.609 75.2871 417.102 75.2871C416.43 75.2871 415.938 75.4688 415.625 75.832C415.312 76.1953 415.156 76.7949 415.156 77.6309V81H414.184V74.5781H414.975L415.133 75.457H415.18C415.379 75.1406 415.658 74.8965 416.018 74.7246C416.377 74.5488 416.777 74.4609 417.219 74.4609C417.992 74.4609 418.574 74.6484 418.965 75.0234C419.355 75.3945 419.551 75.9902 419.551 76.8105V81H418.578ZM422.527 81H421.555V74.5781H422.527V81ZM421.473 72.8379C421.473 72.6152 421.527 72.4531 421.637 72.3516C421.746 72.2461 421.883 72.1934 422.047 72.1934C422.203 72.1934 422.338 72.2461 422.451 72.3516C422.564 72.457 422.621 72.6191 422.621 72.8379C422.621 73.0566 422.564 73.2207 422.451 73.3301C422.338 73.4355 422.203 73.4883 422.047 73.4883C421.883 73.4883 421.746 73.4355 421.637 73.3301C421.527 73.2207 421.473 73.0566 421.473 72.8379ZM428.732 79.248C428.732 79.8457 428.51 80.3066 428.064 80.6309C427.619 80.9551 426.994 81.1172 426.189 81.1172C425.338 81.1172 424.674 80.9824 424.197 80.7129V79.8105C424.506 79.9668 424.836 80.0898 425.188 80.1797C425.543 80.2695 425.885 80.3145 426.213 80.3145C426.721 80.3145 427.111 80.2344 427.385 80.0742C427.658 79.9102 427.795 79.6621 427.795 79.3301C427.795 79.0801 427.686 78.8672 427.467 78.6914C427.252 78.5117 426.83 78.3008 426.201 78.0586C425.604 77.8359 425.178 77.6426 424.924 77.4785C424.674 77.3105 424.486 77.1211 424.361 76.9102C424.24 76.6992 424.18 76.4473 424.18 76.1543C424.18 75.6309 424.393 75.2188 424.818 74.918C425.244 74.6133 425.828 74.4609 426.57 74.4609C427.262 74.4609 427.938 74.6016 428.598 74.8828L428.252 75.6738C427.607 75.4082 427.023 75.2754 426.5 75.2754C426.039 75.2754 425.691 75.3477 425.457 75.4922C425.223 75.6367 425.105 75.8359 425.105 76.0898C425.105 76.2617 425.148 76.4082 425.234 76.5293C425.324 76.6504 425.467 76.7656 425.662 76.875C425.857 76.9844 426.232 77.1426 426.787 77.3496C427.549 77.627 428.062 77.9062 428.328 78.1875C428.598 78.4688 428.732 78.8223 428.732 79.248ZM434.715 81V76.8457C434.715 76.3223 434.596 75.9316 434.357 75.6738C434.119 75.416 433.746 75.2871 433.238 75.2871C432.562 75.2871 432.068 75.4707 431.756 75.8379C431.447 76.2051 431.293 76.8066 431.293 77.6426V81H430.32V71.8828H431.293V74.6426C431.293 74.9746 431.277 75.25 431.246 75.4688H431.305C431.496 75.1602 431.768 74.918 432.119 74.7422C432.475 74.5625 432.879 74.4727 433.332 74.4727C434.117 74.4727 434.705 74.6602 435.096 75.0352C435.49 75.4062 435.688 75.998 435.688 76.8105V81H434.715ZM442.883 80.3145C443.055 80.3145 443.221 80.3027 443.381 80.2793C443.541 80.252 443.668 80.2246 443.762 80.1973V80.9414C443.656 80.9922 443.5 81.0332 443.293 81.0645C443.09 81.0996 442.906 81.1172 442.742 81.1172C441.5 81.1172 440.879 80.4629 440.879 79.1543V75.334H439.959V74.8652L440.879 74.4609L441.289 73.0898H441.852V74.5781H443.715V75.334H441.852V79.1133C441.852 79.5 441.943 79.7969 442.127 80.0039C442.311 80.2109 442.562 80.3145 442.883 80.3145ZM449.445 81V76.8457C449.445 76.3223 449.326 75.9316 449.088 75.6738C448.85 75.416 448.477 75.2871 447.969 75.2871C447.293 75.2871 446.799 75.4707 446.486 75.8379C446.178 76.2051 446.023 76.8066 446.023 77.6426V81H445.051V71.8828H446.023V74.6426C446.023 74.9746 446.008 75.25 445.977 75.4688H446.035C446.227 75.1602 446.498 74.918 446.85 74.7422C447.205 74.5625 447.609 74.4727 448.062 74.4727C448.848 74.4727 449.436 74.6602 449.826 75.0352C450.221 75.4062 450.418 75.998 450.418 76.8105V81H449.445ZM455.135 81.1172C454.186 81.1172 453.436 80.8281 452.885 80.25C452.338 79.6719 452.064 78.8691 452.064 77.8418C452.064 76.8066 452.318 75.9844 452.826 75.375C453.338 74.7656 454.023 74.4609 454.883 74.4609C455.688 74.4609 456.324 74.7266 456.793 75.2578C457.262 75.7852 457.496 76.4824 457.496 77.3496V77.9648H453.072C453.092 78.7188 453.281 79.291 453.641 79.6816C454.004 80.0723 454.514 80.2676 455.17 80.2676C455.861 80.2676 456.545 80.123 457.221 79.834V80.7012C456.877 80.8496 456.551 80.9551 456.242 81.0176C455.938 81.084 455.568 81.1172 455.135 81.1172ZM454.871 75.2754C454.355 75.2754 453.943 75.4434 453.635 75.7793C453.33 76.1152 453.15 76.5801 453.096 77.1738H456.453C456.453 76.5605 456.316 76.0918 456.043 75.7676C455.77 75.4395 455.379 75.2754 454.871 75.2754ZM465.266 74.4727C466.109 74.4727 466.764 74.7617 467.229 75.3398C467.697 75.9141 467.932 76.7285 467.932 77.7832C467.932 78.8379 467.695 79.6582 467.223 80.2441C466.754 80.8262 466.102 81.1172 465.266 81.1172C464.848 81.1172 464.465 81.041 464.117 80.8887C463.773 80.7324 463.484 80.4941 463.25 80.1738H463.18L462.975 81H462.277V71.8828H463.25V74.0977C463.25 74.5938 463.234 75.0391 463.203 75.4336H463.25C463.703 74.793 464.375 74.4727 465.266 74.4727ZM465.125 75.2871C464.461 75.2871 463.982 75.4785 463.689 75.8613C463.396 76.2402 463.25 76.8809 463.25 77.7832C463.25 78.6855 463.4 79.332 463.701 79.7227C464.002 80.1094 464.484 80.3027 465.148 80.3027C465.746 80.3027 466.191 80.0859 466.484 79.6523C466.777 79.2148 466.924 78.5879 466.924 77.7715C466.924 76.9355 466.777 76.3125 466.484 75.9023C466.191 75.4922 465.738 75.2871 465.125 75.2871ZM470.551 74.5781V78.7441C470.551 79.2676 470.67 79.6582 470.908 79.916C471.146 80.1738 471.52 80.3027 472.027 80.3027C472.699 80.3027 473.189 80.1191 473.498 79.752C473.811 79.3848 473.967 78.7852 473.967 77.9531V74.5781H474.939V81H474.137L473.996 80.1387H473.943C473.744 80.4551 473.467 80.6973 473.111 80.8652C472.76 81.0332 472.357 81.1172 471.904 81.1172C471.123 81.1172 470.537 80.9316 470.146 80.5605C469.76 80.1895 469.566 79.5957 469.566 78.7793V74.5781H470.551ZM479.938 74.4609C480.223 74.4609 480.479 74.4844 480.705 74.5312L480.57 75.4336C480.305 75.375 480.07 75.3457 479.867 75.3457C479.348 75.3457 478.902 75.5566 478.531 75.9785C478.164 76.4004 477.98 76.9258 477.98 77.5547V81H477.008V74.5781H477.811L477.922 75.7676H477.969C478.207 75.3496 478.494 75.0273 478.83 74.8008C479.166 74.5742 479.535 74.4609 479.938 74.4609ZM486.301 81V76.8457C486.301 76.3223 486.182 75.9316 485.943 75.6738C485.705 75.416 485.332 75.2871 484.824 75.2871C484.152 75.2871 483.66 75.4688 483.348 75.832C483.035 76.1953 482.879 76.7949 482.879 77.6309V81H481.906V74.5781H482.697L482.855 75.457H482.902C483.102 75.1406 483.381 74.8965 483.74 74.7246C484.1 74.5488 484.5 74.4609 484.941 74.4609C485.715 74.4609 486.297 74.6484 486.688 75.0234C487.078 75.3945 487.273 75.9902 487.273 76.8105V81H486.301ZM490.25 81H489.277V74.5781H490.25V81ZM489.195 72.8379C489.195 72.6152 489.25 72.4531 489.359 72.3516C489.469 72.2461 489.605 72.1934 489.77 72.1934C489.926 72.1934 490.061 72.2461 490.174 72.3516C490.287 72.457 490.344 72.6191 490.344 72.8379C490.344 73.0566 490.287 73.2207 490.174 73.3301C490.061 73.4355 489.926 73.4883 489.77 73.4883C489.605 73.4883 489.469 73.4355 489.359 73.3301C489.25 73.2207 489.195 73.0566 489.195 72.8379ZM496.707 81V76.8457C496.707 76.3223 496.588 75.9316 496.35 75.6738C496.111 75.416 495.738 75.2871 495.23 75.2871C494.559 75.2871 494.066 75.4688 493.754 75.832C493.441 76.1953 493.285 76.7949 493.285 77.6309V81H492.312V74.5781H493.104L493.262 75.457H493.309C493.508 75.1406 493.787 74.8965 494.146 74.7246C494.506 74.5488 494.906 74.4609 495.348 74.4609C496.121 74.4609 496.703 74.6484 497.094 75.0234C497.484 75.3945 497.68 75.9902 497.68 76.8105V81H496.707ZM504.939 74.5781V75.1934L503.75 75.334C503.859 75.4707 503.957 75.6504 504.043 75.873C504.129 76.0918 504.172 76.3398 504.172 76.6172C504.172 77.2461 503.957 77.748 503.527 78.123C503.098 78.498 502.508 78.6855 501.758 78.6855C501.566 78.6855 501.387 78.6699 501.219 78.6387C500.805 78.8574 500.598 79.1328 500.598 79.4648C500.598 79.6406 500.67 79.7715 500.814 79.8574C500.959 79.9395 501.207 79.9805 501.559 79.9805H502.695C503.391 79.9805 503.924 80.127 504.295 80.4199C504.67 80.7129 504.857 81.1387 504.857 81.6973C504.857 82.4082 504.572 82.9492 504.002 83.3203C503.432 83.6953 502.6 83.8828 501.506 83.8828C500.666 83.8828 500.018 83.7266 499.561 83.4141C499.107 83.1016 498.881 82.6602 498.881 82.0898C498.881 81.6992 499.006 81.3613 499.256 81.0762C499.506 80.791 499.857 80.5977 500.311 80.4961C500.146 80.4219 500.008 80.3066 499.895 80.1504C499.785 79.9941 499.73 79.8125 499.73 79.6055C499.73 79.3711 499.793 79.166 499.918 78.9902C500.043 78.8145 500.24 78.6445 500.51 78.4805C500.178 78.3438 499.906 78.1113 499.695 77.7832C499.488 77.4551 499.385 77.0801 499.385 76.6582C499.385 75.9551 499.596 75.4141 500.018 75.0352C500.439 74.6523 501.037 74.4609 501.811 74.4609C502.146 74.4609 502.449 74.5 502.719 74.5781H504.939ZM499.818 82.0781C499.818 82.4258 499.965 82.6895 500.258 82.8691C500.551 83.0488 500.971 83.1387 501.518 83.1387C502.334 83.1387 502.938 83.0156 503.328 82.7695C503.723 82.5273 503.92 82.1973 503.92 81.7793C503.92 81.4316 503.812 81.1895 503.598 81.0527C503.383 80.9199 502.979 80.8535 502.385 80.8535H501.219C500.777 80.8535 500.434 80.959 500.188 81.1699C499.941 81.3809 499.818 81.6836 499.818 82.0781ZM500.346 76.6348C500.346 77.084 500.473 77.4238 500.727 77.6543C500.98 77.8848 501.334 78 501.787 78C502.736 78 503.211 77.5391 503.211 76.6172C503.211 75.6523 502.73 75.1699 501.77 75.1699C501.312 75.1699 500.961 75.293 500.715 75.5391C500.469 75.7852 500.346 76.1504 500.346 76.6348ZM512.363 81.1172C511.945 81.1172 511.562 81.041 511.215 80.8887C510.871 80.7324 510.582 80.4941 510.348 80.1738H510.277C510.324 80.5488 510.348 80.9043 510.348 81.2402V83.8828H509.375V74.5781H510.166L510.301 75.457H510.348C510.598 75.1055 510.889 74.8516 511.221 74.6953C511.553 74.5391 511.934 74.4609 512.363 74.4609C513.215 74.4609 513.871 74.752 514.332 75.334C514.797 75.916 515.029 76.7324 515.029 77.7832C515.029 78.8379 514.793 79.6582 514.32 80.2441C513.852 80.8262 513.199 81.1172 512.363 81.1172ZM512.223 75.2871C511.566 75.2871 511.092 75.4688 510.799 75.832C510.506 76.1953 510.355 76.7734 510.348 77.5664V77.7832C510.348 78.6855 510.498 79.332 510.799 79.7227C511.1 80.1094 511.582 80.3027 512.246 80.3027C512.801 80.3027 513.234 80.0781 513.547 79.6289C513.863 79.1797 514.021 78.5605 514.021 77.7715C514.021 76.9707 513.863 76.3574 513.547 75.9316C513.234 75.502 512.793 75.2871 512.223 75.2871ZM522.277 77.7832C522.277 78.8301 522.014 79.6484 521.486 80.2383C520.959 80.8242 520.23 81.1172 519.301 81.1172C518.727 81.1172 518.217 80.9824 517.771 80.7129C517.326 80.4434 516.982 80.0566 516.74 79.5527C516.498 79.0488 516.377 78.459 516.377 77.7832C516.377 76.7363 516.639 75.9219 517.162 75.3398C517.686 74.7539 518.412 74.4609 519.342 74.4609C520.24 74.4609 520.953 74.7598 521.48 75.3574C522.012 75.9551 522.277 76.7637 522.277 77.7832ZM517.385 77.7832C517.385 78.6035 517.549 79.2285 517.877 79.6582C518.205 80.0879 518.688 80.3027 519.324 80.3027C519.961 80.3027 520.443 80.0898 520.771 79.6641C521.104 79.2344 521.27 78.6074 521.27 77.7832C521.27 76.9668 521.104 76.3477 520.771 75.9258C520.443 75.5 519.957 75.2871 519.312 75.2871C518.676 75.2871 518.195 75.4961 517.871 75.9141C517.547 76.332 517.385 76.9551 517.385 77.7832ZM529.531 77.7832C529.531 78.8301 529.268 79.6484 528.74 80.2383C528.213 80.8242 527.484 81.1172 526.555 81.1172C525.98 81.1172 525.471 80.9824 525.025 80.7129C524.58 80.4434 524.236 80.0566 523.994 79.5527C523.752 79.0488 523.631 78.459 523.631 77.7832C523.631 76.7363 523.893 75.9219 524.416 75.3398C524.939 74.7539 525.666 74.4609 526.596 74.4609C527.494 74.4609 528.207 74.7598 528.734 75.3574C529.266 75.9551 529.531 76.7637 529.531 77.7832ZM524.639 77.7832C524.639 78.6035 524.803 79.2285 525.131 79.6582C525.459 80.0879 525.941 80.3027 526.578 80.3027C527.215 80.3027 527.697 80.0898 528.025 79.6641C528.357 79.2344 528.523 78.6074 528.523 77.7832C528.523 76.9668 528.357 76.3477 528.025 75.9258C527.697 75.5 527.211 75.2871 526.566 75.2871C525.93 75.2871 525.449 75.4961 525.125 75.9141C524.801 76.332 524.639 76.9551 524.639 77.7832ZM532.215 81H531.242V71.8828H532.215V81Z" fill="white"/>
<path d="M14.8945 304.449C14.8945 304.996 14.7402 305.443 14.4316 305.791C14.127 306.139 13.6934 306.371 13.1309 306.488V306.535C13.8184 306.621 14.3281 306.84 14.6602 307.191C14.9922 307.543 15.1582 308.004 15.1582 308.574C15.1582 309.391 14.875 310.02 14.3086 310.461C13.7422 310.898 12.9375 311.117 11.8945 311.117C11.4414 311.117 11.0254 311.082 10.6465 311.012C10.2715 310.945 9.90625 310.826 9.55078 310.654V309.729C9.92188 309.912 10.3164 310.053 10.7344 310.15C11.1562 310.244 11.5547 310.291 11.9297 310.291C13.4102 310.291 14.1504 309.711 14.1504 308.551C14.1504 307.512 13.334 306.992 11.7012 306.992H10.8574V306.154H11.7129C12.3809 306.154 12.9102 306.008 13.3008 305.715C13.6914 305.418 13.8867 305.008 13.8867 304.484C13.8867 304.066 13.7422 303.738 13.4531 303.5C13.168 303.262 12.7793 303.143 12.2871 303.143C11.9121 303.143 11.5586 303.193 11.2266 303.295C10.8945 303.396 10.5156 303.584 10.0898 303.857L9.59766 303.201C9.94922 302.924 10.3535 302.707 10.8105 302.551C11.2715 302.391 11.7559 302.311 12.2637 302.311C13.0957 302.311 13.7422 302.502 14.2031 302.885C14.6641 303.264 14.8945 303.785 14.8945 304.449ZM17.2852 304.988C17.2852 305.652 17.3574 306.15 17.502 306.482C17.6465 306.814 17.8809 306.98 18.2051 306.98C18.8457 306.98 19.166 306.316 19.166 304.988C19.166 303.668 18.8457 303.008 18.2051 303.008C17.8809 303.008 17.6465 303.172 17.502 303.5C17.3574 303.828 17.2852 304.324 17.2852 304.988ZM19.9688 304.988C19.9688 305.879 19.8184 306.553 19.5176 307.01C19.2207 307.463 18.7832 307.689 18.2051 307.689C17.6582 307.689 17.2324 307.457 16.9277 306.992C16.627 306.527 16.4766 305.859 16.4766 304.988C16.4766 304.102 16.6211 303.434 16.9102 302.984C17.2031 302.535 17.6348 302.311 18.2051 302.311C18.7715 302.311 19.207 302.543 19.5117 303.008C19.8164 303.473 19.9688 304.133 19.9688 304.988ZM22.4414 308.422C22.4414 309.09 22.5137 309.59 22.6582 309.922C22.8027 310.25 23.0391 310.414 23.3672 310.414C23.6953 310.414 23.9375 310.252 24.0938 309.928C24.25 309.6 24.3281 309.098 24.3281 308.422C24.3281 307.754 24.25 307.26 24.0938 306.939C23.9375 306.615 23.6953 306.453 23.3672 306.453C23.0391 306.453 22.8027 306.615 22.6582 306.939C22.5137 307.26 22.4414 307.754 22.4414 308.422ZM25.1309 308.422C25.1309 309.309 24.9805 309.98 24.6797 310.438C24.3828 310.891 23.9453 311.117 23.3672 311.117C22.8125 311.117 22.3848 310.885 22.084 310.42C21.7871 309.955 21.6387 309.289 21.6387 308.422C21.6387 307.535 21.7832 306.867 22.0723 306.418C22.3652 305.969 22.7969 305.744 23.3672 305.744C23.9219 305.744 24.3535 305.975 24.6621 306.436C24.9746 306.893 25.1309 307.555 25.1309 308.422ZM23.6191 302.434L18.8672 311H18.0059L22.7578 302.434H23.6191ZM13.9688 327L11.0625 319.406H11.0156C11.0703 320.008 11.0977 320.723 11.0977 321.551V327H10.1777V318.434H11.6777L14.3906 325.5H14.4375L17.1738 318.434H18.6621V327H17.666V321.48C17.666 320.848 17.6934 320.16 17.748 319.418H17.7012L14.7715 327H13.9688ZM24.8203 327L24.627 326.086H24.5801C24.2598 326.488 23.9395 326.762 23.6191 326.906C23.3027 327.047 22.9062 327.117 22.4297 327.117C21.793 327.117 21.293 326.953 20.9297 326.625C20.5703 326.297 20.3906 325.83 20.3906 325.225C20.3906 323.928 21.4277 323.248 23.502 323.186L24.5918 323.15V322.752C24.5918 322.248 24.4824 321.877 24.2637 321.639C24.0488 321.396 23.7031 321.275 23.2266 321.275C22.6914 321.275 22.0859 321.439 21.4102 321.768L21.1113 321.023C21.4277 320.852 21.7734 320.717 22.1484 320.619C22.5273 320.521 22.9062 320.473 23.2852 320.473C24.0508 320.473 24.6172 320.643 24.9844 320.982C25.3555 321.322 25.541 321.867 25.541 322.617V327H24.8203ZM22.623 326.314C23.2285 326.314 23.7031 326.148 24.0469 325.816C24.3945 325.484 24.5684 325.02 24.5684 324.422V323.842L23.5957 323.883C22.8223 323.91 22.2637 324.031 21.9199 324.246C21.5801 324.457 21.4102 324.787 21.4102 325.236C21.4102 325.588 21.5156 325.855 21.7266 326.039C21.9414 326.223 22.2402 326.314 22.623 326.314ZM30.4805 320.461C30.7656 320.461 31.0215 320.484 31.248 320.531L31.1133 321.434C30.8477 321.375 30.6133 321.346 30.4102 321.346C29.8906 321.346 29.4453 321.557 29.0742 321.979C28.707 322.4 28.5234 322.926 28.5234 323.555V327H27.5508V320.578H28.3535L28.4648 321.768H28.5117C28.75 321.35 29.0371 321.027 29.373 320.801C29.709 320.574 30.0781 320.461 30.4805 320.461ZM33.4102 323.713C33.5781 323.475 33.834 323.162 34.1777 322.775L36.252 320.578H37.4062L34.8047 323.314L37.5879 327H36.4102L34.1426 323.965L33.4102 324.598V327H32.4492V317.883H33.4102V322.717C33.4102 322.932 33.3945 323.264 33.3633 323.713H33.4102ZM41.4668 327.117C40.5176 327.117 39.7676 326.828 39.2168 326.25C38.6699 325.672 38.3965 324.869 38.3965 323.842C38.3965 322.807 38.6504 321.984 39.1582 321.375C39.6699 320.766 40.3555 320.461 41.2148 320.461C42.0195 320.461 42.6562 320.727 43.125 321.258C43.5938 321.785 43.8281 322.482 43.8281 323.35V323.965H39.4043C39.4238 324.719 39.6133 325.291 39.9727 325.682C40.3359 326.072 40.8457 326.268 41.502 326.268C42.1934 326.268 42.877 326.123 43.5527 325.834V326.701C43.209 326.85 42.8828 326.955 42.5742 327.018C42.2695 327.084 41.9004 327.117 41.4668 327.117ZM41.2031 321.275C40.6875 321.275 40.2754 321.443 39.9668 321.779C39.6621 322.115 39.4824 322.58 39.4277 323.174H42.7852C42.7852 322.561 42.6484 322.092 42.375 321.768C42.1016 321.439 41.7109 321.275 41.2031 321.275ZM47.5664 326.314C47.7383 326.314 47.9043 326.303 48.0645 326.279C48.2246 326.252 48.3516 326.225 48.4453 326.197V326.941C48.3398 326.992 48.1836 327.033 47.9766 327.064C47.7734 327.1 47.5898 327.117 47.4258 327.117C46.1836 327.117 45.5625 326.463 45.5625 325.154V321.334H44.6426V320.865L45.5625 320.461L45.9727 319.09H46.5352V320.578H48.3984V321.334H46.5352V325.113C46.5352 325.5 46.627 325.797 46.8105 326.004C46.9941 326.211 47.2461 326.314 47.5664 326.314ZM50.707 327H49.7344V320.578H50.707V327ZM49.6523 318.838C49.6523 318.615 49.707 318.453 49.8164 318.352C49.9258 318.246 50.0625 318.193 50.2266 318.193C50.3828 318.193 50.5176 318.246 50.6309 318.352C50.7441 318.457 50.8008 318.619 50.8008 318.838C50.8008 319.057 50.7441 319.221 50.6309 319.33C50.5176 319.436 50.3828 319.488 50.2266 319.488C50.0625 319.488 49.9258 319.436 49.8164 319.33C49.707 319.221 49.6523 319.057 49.6523 318.838ZM57.1641 327V322.846C57.1641 322.322 57.0449 321.932 56.8066 321.674C56.5684 321.416 56.1953 321.287 55.6875 321.287C55.0156 321.287 54.5234 321.469 54.2109 321.832C53.8984 322.195 53.7422 322.795 53.7422 323.631V327H52.7695V320.578H53.5605L53.7188 321.457H53.7656C53.9648 321.141 54.2441 320.896 54.6035 320.725C54.9629 320.549 55.3633 320.461 55.8047 320.461C56.5781 320.461 57.1602 320.648 57.5508 321.023C57.9414 321.395 58.1367 321.99 58.1367 322.811V327H57.1641ZM65.3965 320.578V321.193L64.207 321.334C64.3164 321.471 64.4141 321.65 64.5 321.873C64.5859 322.092 64.6289 322.34 64.6289 322.617C64.6289 323.246 64.4141 323.748 63.9844 324.123C63.5547 324.498 62.9648 324.686 62.2148 324.686C62.0234 324.686 61.8438 324.67 61.6758 324.639C61.2617 324.857 61.0547 325.133 61.0547 325.465C61.0547 325.641 61.127 325.771 61.2715 325.857C61.416 325.939 61.6641 325.98 62.0156 325.98H63.1523C63.8477 325.98 64.3809 326.127 64.752 326.42C65.127 326.713 65.3145 327.139 65.3145 327.697C65.3145 328.408 65.0293 328.949 64.459 329.32C63.8887 329.695 63.0566 329.883 61.9629 329.883C61.123 329.883 60.4746 329.727 60.0176 329.414C59.5645 329.102 59.3379 328.66 59.3379 328.09C59.3379 327.699 59.4629 327.361 59.7129 327.076C59.9629 326.791 60.3145 326.598 60.7676 326.496C60.6035 326.422 60.4648 326.307 60.3516 326.15C60.2422 325.994 60.1875 325.812 60.1875 325.605C60.1875 325.371 60.25 325.166 60.375 324.99C60.5 324.814 60.6973 324.645 60.9668 324.48C60.6348 324.344 60.3633 324.111 60.1523 323.783C59.9453 323.455 59.8418 323.08 59.8418 322.658C59.8418 321.955 60.0527 321.414 60.4746 321.035C60.8965 320.652 61.4941 320.461 62.2676 320.461C62.6035 320.461 62.9062 320.5 63.1758 320.578H65.3965ZM60.2754 328.078C60.2754 328.426 60.4219 328.689 60.7148 328.869C61.0078 329.049 61.4277 329.139 61.9746 329.139C62.791 329.139 63.3945 329.016 63.7852 328.77C64.1797 328.527 64.377 328.197 64.377 327.779C64.377 327.432 64.2695 327.189 64.0547 327.053C63.8398 326.92 63.4355 326.854 62.8418 326.854H61.6758C61.2344 326.854 60.8906 326.959 60.6445 327.17C60.3984 327.381 60.2754 327.684 60.2754 328.078ZM60.8027 322.635C60.8027 323.084 60.9297 323.424 61.1836 323.654C61.4375 323.885 61.791 324 62.2441 324C63.1934 324 63.668 323.539 63.668 322.617C63.668 321.652 63.1875 321.17 62.2266 321.17C61.7695 321.17 61.418 321.293 61.1719 321.539C60.9258 321.785 60.8027 322.15 60.8027 322.635Z" fill="white"/>
<path d="M427.217 312H421.586V311.162L423.842 308.895C424.529 308.199 424.982 307.703 425.201 307.406C425.42 307.109 425.584 306.82 425.693 306.539C425.803 306.258 425.857 305.955 425.857 305.631C425.857 305.174 425.719 304.812 425.441 304.547C425.164 304.277 424.779 304.143 424.287 304.143C423.932 304.143 423.594 304.201 423.273 304.318C422.957 304.436 422.604 304.648 422.213 304.957L421.697 304.295C422.486 303.639 423.346 303.311 424.275 303.311C425.08 303.311 425.711 303.518 426.168 303.932C426.625 304.342 426.854 304.895 426.854 305.59C426.854 306.133 426.701 306.67 426.396 307.201C426.092 307.732 425.521 308.404 424.686 309.217L422.811 311.051V311.098H427.217V312ZM429.285 305.988C429.285 306.652 429.357 307.15 429.502 307.482C429.646 307.814 429.881 307.98 430.205 307.98C430.846 307.98 431.166 307.316 431.166 305.988C431.166 304.668 430.846 304.008 430.205 304.008C429.881 304.008 429.646 304.172 429.502 304.5C429.357 304.828 429.285 305.324 429.285 305.988ZM431.969 305.988C431.969 306.879 431.818 307.553 431.518 308.01C431.221 308.463 430.783 308.689 430.205 308.689C429.658 308.689 429.232 308.457 428.928 307.992C428.627 307.527 428.477 306.859 428.477 305.988C428.477 305.102 428.621 304.434 428.91 303.984C429.203 303.535 429.635 303.311 430.205 303.311C430.771 303.311 431.207 303.543 431.512 304.008C431.816 304.473 431.969 305.133 431.969 305.988ZM434.441 309.422C434.441 310.09 434.514 310.59 434.658 310.922C434.803 311.25 435.039 311.414 435.367 311.414C435.695 311.414 435.938 311.252 436.094 310.928C436.25 310.6 436.328 310.098 436.328 309.422C436.328 308.754 436.25 308.26 436.094 307.939C435.938 307.615 435.695 307.453 435.367 307.453C435.039 307.453 434.803 307.615 434.658 307.939C434.514 308.26 434.441 308.754 434.441 309.422ZM437.131 309.422C437.131 310.309 436.98 310.98 436.68 311.438C436.383 311.891 435.945 312.117 435.367 312.117C434.812 312.117 434.385 311.885 434.084 311.42C433.787 310.955 433.639 310.289 433.639 309.422C433.639 308.535 433.783 307.867 434.072 307.418C434.365 306.969 434.797 306.744 435.367 306.744C435.922 306.744 436.354 306.975 436.662 307.436C436.975 307.893 437.131 308.555 437.131 309.422ZM435.619 303.434L430.867 312H430.006L434.758 303.434H435.619ZM445.709 304.201C444.768 304.201 444.023 304.516 443.477 305.145C442.934 305.77 442.662 306.627 442.662 307.717C442.662 308.838 442.924 309.705 443.447 310.318C443.975 310.928 444.725 311.232 445.697 311.232C446.295 311.232 446.977 311.125 447.742 310.91V311.783C447.148 312.006 446.416 312.117 445.545 312.117C444.283 312.117 443.309 311.734 442.621 310.969C441.938 310.203 441.596 309.115 441.596 307.705C441.596 306.822 441.76 306.049 442.088 305.385C442.42 304.721 442.896 304.209 443.518 303.85C444.143 303.49 444.877 303.311 445.721 303.311C446.619 303.311 447.404 303.475 448.076 303.803L447.654 304.658C447.006 304.354 446.357 304.201 445.709 304.201ZM455.008 308.783C455.008 309.83 454.744 310.648 454.217 311.238C453.689 311.824 452.961 312.117 452.031 312.117C451.457 312.117 450.947 311.982 450.502 311.713C450.057 311.443 449.713 311.057 449.471 310.553C449.229 310.049 449.107 309.459 449.107 308.783C449.107 307.736 449.369 306.922 449.893 306.34C450.416 305.754 451.143 305.461 452.072 305.461C452.971 305.461 453.684 305.76 454.211 306.357C454.742 306.955 455.008 307.764 455.008 308.783ZM450.115 308.783C450.115 309.604 450.279 310.229 450.607 310.658C450.936 311.088 451.418 311.303 452.055 311.303C452.691 311.303 453.174 311.09 453.502 310.664C453.834 310.234 454 309.607 454 308.783C454 307.967 453.834 307.348 453.502 306.926C453.174 306.5 452.688 306.287 452.043 306.287C451.406 306.287 450.926 306.496 450.602 306.914C450.277 307.332 450.115 307.955 450.115 308.783ZM461.113 312V307.846C461.113 307.322 460.994 306.932 460.756 306.674C460.518 306.416 460.145 306.287 459.637 306.287C458.965 306.287 458.473 306.469 458.16 306.832C457.848 307.195 457.691 307.795 457.691 308.631V312H456.719V305.578H457.51L457.668 306.457H457.715C457.914 306.141 458.193 305.896 458.553 305.725C458.912 305.549 459.312 305.461 459.754 305.461C460.527 305.461 461.109 305.648 461.5 306.023C461.891 306.395 462.086 306.99 462.086 307.811V312H461.113ZM466.164 311.314C466.336 311.314 466.502 311.303 466.662 311.279C466.822 311.252 466.949 311.225 467.043 311.197V311.941C466.938 311.992 466.781 312.033 466.574 312.064C466.371 312.1 466.188 312.117 466.023 312.117C464.781 312.117 464.16 311.463 464.16 310.154V306.334H463.24V305.865L464.16 305.461L464.57 304.09H465.133V305.578H466.996V306.334H465.133V310.113C465.133 310.5 465.225 310.797 465.408 311.004C465.592 311.211 465.844 311.314 466.164 311.314ZM471.045 312.117C470.096 312.117 469.346 311.828 468.795 311.25C468.248 310.672 467.975 309.869 467.975 308.842C467.975 307.807 468.229 306.984 468.736 306.375C469.248 305.766 469.934 305.461 470.793 305.461C471.598 305.461 472.234 305.727 472.703 306.258C473.172 306.785 473.406 307.482 473.406 308.35V308.965H468.982C469.002 309.719 469.191 310.291 469.551 310.682C469.914 311.072 470.424 311.268 471.08 311.268C471.771 311.268 472.455 311.123 473.131 310.834V311.701C472.787 311.85 472.461 311.955 472.152 312.018C471.848 312.084 471.479 312.117 471.045 312.117ZM470.781 306.275C470.266 306.275 469.854 306.443 469.545 306.779C469.24 307.115 469.061 307.58 469.006 308.174H472.363C472.363 307.561 472.227 307.092 471.953 306.768C471.68 306.439 471.289 306.275 470.781 306.275ZM479.213 310.248C479.213 310.846 478.99 311.307 478.545 311.631C478.1 311.955 477.475 312.117 476.67 312.117C475.818 312.117 475.154 311.982 474.678 311.713V310.811C474.986 310.967 475.316 311.09 475.668 311.18C476.023 311.27 476.365 311.314 476.693 311.314C477.201 311.314 477.592 311.234 477.865 311.074C478.139 310.91 478.275 310.662 478.275 310.33C478.275 310.08 478.166 309.867 477.947 309.691C477.732 309.512 477.311 309.301 476.682 309.059C476.084 308.836 475.658 308.643 475.404 308.479C475.154 308.311 474.967 308.121 474.842 307.91C474.721 307.699 474.66 307.447 474.66 307.154C474.66 306.631 474.873 306.219 475.299 305.918C475.725 305.613 476.309 305.461 477.051 305.461C477.742 305.461 478.418 305.602 479.078 305.883L478.732 306.674C478.088 306.408 477.504 306.275 476.98 306.275C476.52 306.275 476.172 306.348 475.938 306.492C475.703 306.637 475.586 306.836 475.586 307.09C475.586 307.262 475.629 307.408 475.715 307.529C475.805 307.65 475.947 307.766 476.143 307.875C476.338 307.984 476.713 308.143 477.268 308.35C478.029 308.627 478.543 308.906 478.809 309.188C479.078 309.469 479.213 309.822 479.213 310.248ZM482.875 311.314C483.047 311.314 483.213 311.303 483.373 311.279C483.533 311.252 483.66 311.225 483.754 311.197V311.941C483.648 311.992 483.492 312.033 483.285 312.064C483.082 312.1 482.898 312.117 482.734 312.117C481.492 312.117 480.871 311.463 480.871 310.154V306.334H479.951V305.865L480.871 305.461L481.281 304.09H481.844V305.578H483.707V306.334H481.844V310.113C481.844 310.5 481.936 310.797 482.119 311.004C482.303 311.211 482.555 311.314 482.875 311.314ZM489.186 310.248C489.186 310.846 488.963 311.307 488.518 311.631C488.072 311.955 487.447 312.117 486.643 312.117C485.791 312.117 485.127 311.982 484.65 311.713V310.811C484.959 310.967 485.289 311.09 485.641 311.18C485.996 311.27 486.338 311.314 486.666 311.314C487.174 311.314 487.564 311.234 487.838 311.074C488.111 310.91 488.248 310.662 488.248 310.33C488.248 310.08 488.139 309.867 487.92 309.691C487.705 309.512 487.283 309.301 486.654 309.059C486.057 308.836 485.631 308.643 485.377 308.479C485.127 308.311 484.939 308.121 484.814 307.91C484.693 307.699 484.633 307.447 484.633 307.154C484.633 306.631 484.846 306.219 485.271 305.918C485.697 305.613 486.281 305.461 487.023 305.461C487.715 305.461 488.391 305.602 489.051 305.883L488.705 306.674C488.061 306.408 487.477 306.275 486.953 306.275C486.492 306.275 486.145 306.348 485.91 306.492C485.676 306.637 485.559 306.836 485.559 307.09C485.559 307.262 485.602 307.408 485.688 307.529C485.777 307.65 485.92 307.766 486.115 307.875C486.311 307.984 486.686 308.143 487.24 308.35C488.002 308.627 488.516 308.906 488.781 309.188C489.051 309.469 489.186 309.822 489.186 310.248ZM497.84 312L497.646 311.086H497.6C497.279 311.488 496.959 311.762 496.639 311.906C496.322 312.047 495.926 312.117 495.449 312.117C494.812 312.117 494.312 311.953 493.949 311.625C493.59 311.297 493.41 310.83 493.41 310.225C493.41 308.928 494.447 308.248 496.521 308.186L497.611 308.15V307.752C497.611 307.248 497.502 306.877 497.283 306.639C497.068 306.396 496.723 306.275 496.246 306.275C495.711 306.275 495.105 306.439 494.43 306.768L494.131 306.023C494.447 305.852 494.793 305.717 495.168 305.619C495.547 305.521 495.926 305.473 496.305 305.473C497.07 305.473 497.637 305.643 498.004 305.982C498.375 306.322 498.561 306.867 498.561 307.617V312H497.84ZM495.643 311.314C496.248 311.314 496.723 311.148 497.066 310.816C497.414 310.484 497.588 310.02 497.588 309.422V308.842L496.615 308.883C495.842 308.91 495.283 309.031 494.939 309.246C494.6 309.457 494.43 309.787 494.43 310.236C494.43 310.588 494.535 310.855 494.746 311.039C494.961 311.223 495.26 311.314 495.643 311.314ZM504.965 312V307.846C504.965 307.322 504.846 306.932 504.607 306.674C504.369 306.416 503.996 306.287 503.488 306.287C502.816 306.287 502.324 306.469 502.012 306.832C501.699 307.195 501.543 307.795 501.543 308.631V312H500.57V305.578H501.361L501.52 306.457H501.566C501.766 306.141 502.045 305.896 502.404 305.725C502.764 305.549 503.164 305.461 503.605 305.461C504.379 305.461 504.961 305.648 505.352 306.023C505.742 306.395 505.938 306.99 505.938 307.811V312H504.965ZM512.312 311.139H512.26C511.811 311.791 511.139 312.117 510.244 312.117C509.404 312.117 508.75 311.83 508.281 311.256C507.816 310.682 507.584 309.865 507.584 308.807C507.584 307.748 507.818 306.926 508.287 306.34C508.756 305.754 509.408 305.461 510.244 305.461C511.115 305.461 511.783 305.777 512.248 306.41H512.324L512.283 305.947L512.26 305.496V302.883H513.232V312H512.441L512.312 311.139ZM510.367 311.303C511.031 311.303 511.512 311.123 511.809 310.764C512.109 310.4 512.26 309.816 512.26 309.012V308.807C512.26 307.896 512.107 307.248 511.803 306.861C511.502 306.471 511.02 306.275 510.355 306.275C509.785 306.275 509.348 306.498 509.043 306.943C508.742 307.385 508.592 308.01 508.592 308.818C508.592 309.639 508.742 310.258 509.043 310.676C509.344 311.094 509.785 311.303 510.367 311.303ZM519.391 312H518.418V302.883H519.391V312ZM526.996 308.783C526.996 309.83 526.732 310.648 526.205 311.238C525.678 311.824 524.949 312.117 524.02 312.117C523.445 312.117 522.936 311.982 522.49 311.713C522.045 311.443 521.701 311.057 521.459 310.553C521.217 310.049 521.096 309.459 521.096 308.783C521.096 307.736 521.357 306.922 521.881 306.34C522.404 305.754 523.131 305.461 524.061 305.461C524.959 305.461 525.672 305.76 526.199 306.357C526.73 306.955 526.996 307.764 526.996 308.783ZM522.104 308.783C522.104 309.604 522.268 310.229 522.596 310.658C522.924 311.088 523.406 311.303 524.043 311.303C524.68 311.303 525.162 311.09 525.49 310.664C525.822 310.234 525.988 309.607 525.988 308.783C525.988 307.967 525.822 307.348 525.49 306.926C525.162 306.5 524.676 306.287 524.031 306.287C523.395 306.287 522.914 306.496 522.59 306.914C522.266 307.332 522.104 307.955 522.104 308.783ZM530.781 311.314C530.953 311.314 531.119 311.303 531.279 311.279C531.439 311.252 531.566 311.225 531.66 311.197V311.941C531.555 311.992 531.398 312.033 531.191 312.064C530.988 312.1 530.805 312.117 530.641 312.117C529.398 312.117 528.777 311.463 528.777 310.154V306.334H527.857V305.865L528.777 305.461L529.188 304.09H529.75V305.578H531.613V306.334H529.75V310.113C529.75 310.5 529.842 310.797 530.025 311.004C530.209 311.211 530.461 311.314 530.781 311.314ZM535.023 311.314C535.195 311.314 535.361 311.303 535.521 311.279C535.682 311.252 535.809 311.225 535.902 311.197V311.941C535.797 311.992 535.641 312.033 535.434 312.064C535.23 312.1 535.047 312.117 534.883 312.117C533.641 312.117 533.02 311.463 533.02 310.154V306.334H532.1V305.865L533.02 305.461L533.43 304.09H533.992V305.578H535.855V306.334H533.992V310.113C533.992 310.5 534.084 310.797 534.268 311.004C534.451 311.211 534.703 311.314 535.023 311.314ZM539.904 312.117C538.955 312.117 538.205 311.828 537.654 311.25C537.107 310.672 536.834 309.869 536.834 308.842C536.834 307.807 537.088 306.984 537.596 306.375C538.107 305.766 538.793 305.461 539.652 305.461C540.457 305.461 541.094 305.727 541.562 306.258C542.031 306.785 542.266 307.482 542.266 308.35V308.965H537.842C537.861 309.719 538.051 310.291 538.41 310.682C538.773 311.072 539.283 311.268 539.939 311.268C540.631 311.268 541.314 311.123 541.99 310.834V311.701C541.646 311.85 541.32 311.955 541.012 312.018C540.707 312.084 540.338 312.117 539.904 312.117ZM539.641 306.275C539.125 306.275 538.713 306.443 538.404 306.779C538.1 307.115 537.92 307.58 537.865 308.174H541.223C541.223 307.561 541.086 307.092 540.812 306.768C540.539 306.439 540.148 306.275 539.641 306.275ZM546.859 305.461C547.145 305.461 547.4 305.484 547.627 305.531L547.492 306.434C547.227 306.375 546.992 306.346 546.789 306.346C546.27 306.346 545.824 306.557 545.453 306.979C545.086 307.4 544.902 307.926 544.902 308.555V312H543.93V305.578H544.732L544.844 306.768H544.891C545.129 306.35 545.416 306.027 545.752 305.801C546.088 305.574 546.457 305.461 546.859 305.461ZM547.809 305.578H548.852L550.258 309.24C550.566 310.076 550.758 310.68 550.832 311.051H550.879C550.93 310.852 551.035 310.512 551.195 310.031C551.359 309.547 551.891 308.062 552.789 305.578H553.832L551.072 312.891C550.799 313.613 550.479 314.125 550.111 314.426C549.748 314.73 549.301 314.883 548.77 314.883C548.473 314.883 548.18 314.85 547.891 314.783V314.004C548.105 314.051 548.346 314.074 548.611 314.074C549.279 314.074 549.756 313.699 550.041 312.949L550.398 312.035L547.809 305.578Z" fill="white"/>
<circle cx="224.899" cy="168.808" r="4.89901" fill="white"/>
<circle cx="136.271" cy="257.899" r="4.89901" fill="white"/>
<path d="M225 169L282.638 76H352" stroke="white" stroke-width="2"/>
<path d="M136.271 257.899L89.402 308.457H33" stroke="white" stroke-width="2"/>
<circle r="4.89901" transform="matrix(-1 0 0 1 309.899 257.899)" fill="white"/>
<path d="M309.899 257.899L356.768 308.457H413.17" stroke="white" stroke-width="2"/>
</svg>
